  0
SECTION
  2
HEADER
  9
$ACADVER
  1
AC1027
  9
$ACADMAINTVER
 70
105
  9
$DWGCODEPAGE
  3
ANSI_1252
  9
$LASTSAVEDBY
  1
ezdxf
  9
$REQUIREDVERSIONS
160
0
  9
$INSBASE
 10
0.0
 20
0.0
 30
0.0
  9
$EXTMIN
 10
1e+20
 20
1e+20
 30
1e+20
  9
$EXTMAX
 10
-1e+20
 20
-1e+20
 30
-1e+20
  9
$LIMMIN
 10
0.0
 20
0.0
  9
$LIMMAX
 10
420.0
 20
297.0
  9
$ORTHOMODE
 70
0
  9
$REGENMODE
 70
1
  9
$FILLMODE
 70
1
  9
$QTEXTMODE
 70
0
  9
$MIRRTEXT
 70
1
  9
$LTSCALE
 40
1.0
  9
$ATTMODE
 70
1
  9
$TEXTSIZE
 40
2.5
  9
$TRACEWID
 40
1.0
  9
$TEXTSTYLE
  7
Standard
  9
$CLAYER
  8
0
  9
$CELTYPE
  6
ByLayer
  9
$CECOLOR
 62
256
  9
$CELTSCALE
 40
1.0
  9
$DISPSILH
 70
0
  9
$DIMSCALE
 40
1.0
  9
$DIMASZ
 40
2.5
  9
$DIMEXO
 40
0.625
  9
$DIMDLI
 40
3.75
  9
$DIMRND
 40
0.0
  9
$DIMDLE
 40
0.0
  9
$DIMEXE
 40
1.25
  9
$DIMTP
 40
0.0
  9
$DIMTM
 40
0.0
  9
$DIMTXT
 40
2.5
  9
$DIMCEN
 40
2.5
  9
$DIMTSZ
 40
0.0
  9
$DIMTOL
 70
0
  9
$DIMLIM
 70
0
  9
$DIMTIH
 70
0
  9
$DIMTOH
 70
0
  9
$DIMSE1
 70
0
  9
$DIMSE2
 70
0
  9
$DIMTAD
 70
1
  9
$DIMZIN
 70
8
  9
$DIMBLK
  1

  9
$DIMASO
 70
1
  9
$DIMSHO
 70
1
  9
$DIMPOST
  1

  9
$DIMAPOST
  1

  9
$DIMALT
 70
0
  9
$DIMALTD
 70
3
  9
$DIMALTF
 40
0.03937007874
  9
$DIMLFAC
 40
1.0
  9
$DIMTOFL
 70
1
  9
$DIMTVP
 40
0.0
  9
$DIMTIX
 70
0
  9
$DIMSOXD
 70
0
  9
$DIMSAH
 70
0
  9
$DIMBLK1
  1

  9
$DIMBLK2
  1

  9
$DIMSTYLE
  2
ISO-25
  9
$DIMCLRD
 70
0
  9
$DIMCLRE
 70
0
  9
$DIMCLRT
 70
0
  9
$DIMTFAC
 40
1.0
  9
$DIMGAP
 40
0.625
  9
$DIMJUST
 70
0
  9
$DIMSD1
 70
0
  9
$DIMSD2
 70
0
  9
$DIMTOLJ
 70
0
  9
$DIMTZIN
 70
8
  9
$DIMALTZ
 70
0
  9
$DIMALTTZ
 70
0
  9
$DIMUPT
 70
0
  9
$DIMDEC
 70
2
  9
$DIMTDEC
 70
2
  9
$DIMALTU
 70
2
  9
$DIMALTTD
 70
3
  9
$DIMTXSTY
  7
Standard
  9
$DIMAUNIT
 70
0
  9
$DIMADEC
 70
0
  9
$DIMALTRND
 40
0.0
  9
$DIMAZIN
 70
0
  9
$DIMDSEP
 70
44
  9
$DIMATFIT
 70
3
  9
$DIMFRAC
 70
0
  9
$DIMLDRBLK
  1

  9
$DIMLUNIT
 70
2
  9
$DIMLWD
 70
-2
  9
$DIMLWE
 70
-2
  9
$DIMTMOVE
 70
0
  9
$DIMFXL
 40
1.0
  9
$DIMFXLON
 70
0
  9
$DIMJOGANG
 40
0.785398163397
  9
$DIMTFILL
 70
0
  9
$DIMTFILLCLR
 70
0
  9
$DIMARCSYM
 70
0
  9
$DIMLTYPE
  6

  9
$DIMLTEX1
  6

  9
$DIMLTEX2
  6

  9
$DIMTXTDIRECTION
 70
0
  9
$LUNITS
 70
2
  9
$LUPREC
 70
4
  9
$SKETCHINC
 40
1.0
  9
$FILLETRAD
 40
10.0
  9
$AUNITS
 70
0
  9
$AUPREC
 70
2
  9
$MENU
  1
.
  9
$ELEVATION
 40
0.0
  9
$PELEVATION
 40
0.0
  9
$THICKNESS
 40
0.0
  9
$LIMCHECK
 70
0
  9
$CHAMFERA
 40
0.0
  9
$CHAMFERB
 40
0.0
  9
$CHAMFERC
 40
0.0
  9
$CHAMFERD
 40
0.0
  9
$SKPOLY
 70
0
  9
$TDCREATE
 40
2461321.571238426
  9
$TDUCREATE
 40
2458532.153996898
  9
$TDUPDATE
 40
2461321.571238426
  9
$TDUUPDATE
 40
2458532.1544311
  9
$TDINDWG
 40
0.0
  9
$TDUSRTIMER
 40
0.0
  9
$USRTIMER
 70
1
  9
$ANGBASE
 50
0.0
  9
$ANGDIR
 70
0
  9
$PDMODE
 70
0
  9
$PDSIZE
 40
0.0
  9
$PLINEWID
 40
0.0
  9
$SPLFRAME
 70
0
  9
$SPLINETYPE
 70
6
  9
$SPLINESEGS
 70
8
  9
$HANDSEED
  5
3F
  9
$SURFTAB1
 70
6
  9
$SURFTAB2
 70
6
  9
$SURFTYPE
 70
6
  9
$SURFU
 70
6
  9
$SURFV
 70
6
  9
$UCSBASE
  2

  9
$UCSNAME
  2

  9
$UCSORG
 10
0.0
 20
0.0
 30
0.0
  9
$UCSXDIR
 10
1.0
 20
0.0
 30
0.0
  9
$UCSYDIR
 10
0.0
 20
1.0
 30
0.0
  9
$UCSORTHOREF
  2

  9
$UCSORTHOVIEW
 70
0
  9
$UCSORGTOP
 10
0.0
 20
0.0
 30
0.0
  9
$UCSORGBOTTOM
 10
0.0
 20
0.0
 30
0.0
  9
$UCSORGLEFT
 10
0.0
 20
0.0
 30
0.0
  9
$UCSORGRIGHT
 10
0.0
 20
0.0
 30
0.0
  9
$UCSORGFRONT
 10
0.0
 20
0.0
 30
0.0
  9
$UCSORGBACK
 10
0.0
 20
0.0
 30
0.0
  9
$PUCSBASE
  2

  9
$PUCSNAME
  2

  9
$PUCSORG
 10
0.0
 20
0.0
 30
0.0
  9
$PUCSXDIR
 10
1.0
 20
0.0
 30
0.0
  9
$PUCSYDIR
 10
0.0
 20
1.0
 30
0.0
  9
$PUCSORTHOREF
  2

  9
$PUCSORTHOVIEW
 70
0
  9
$PUCSORGTOP
 10
0.0
 20
0.0
 30
0.0
  9
$PUCSORGBOTTOM
 10
0.0
 20
0.0
 30
0.0
  9
$PUCSORGLEFT
 10
0.0
 20
0.0
 30
0.0
  9
$PUCSORGRIGHT
 10
0.0
 20
0.0
 30
0.0
  9
$PUCSORGFRONT
 10
0.0
 20
0.0
 30
0.0
  9
$PUCSORGBACK
 10
0.0
 20
0.0
 30
0.0
  9
$USERI1
 70
0
  9
$USERI2
 70
0
  9
$USERI3
 70
0
  9
$USERI4
 70
0
  9
$USERI5
 70
0
  9
$USERR1
 40
0.0
  9
$USERR2
 40
0.0
  9
$USERR3
 40
0.0
  9
$USERR4
 40
0.0
  9
$USERR5
 40
0.0
  9
$WORLDVIEW
 70
1
  9
$SHADEDGE
 70
3
  9
$SHADEDIF
 70
70
  9
$TILEMODE
 70
1
  9
$MAXACTVP
 70
64
  9
$PINSBASE
 10
0.0
 20
0.0
 30
0.0
  9
$PLIMCHECK
 70
0
  9
$PEXTMIN
 10
1e+20
 20
1e+20
 30
1e+20
  9
$PEXTMAX
 10
-1e+20
 20
-1e+20
 30
-1e+20
  9
$PLIMMIN
 10
0.0
 20
0.0
  9
$PLIMMAX
 10
420.0
 20
297.0
  9
$UNITMODE
 70
0
  9
$VISRETAIN
 70
1
  9
$PLINEGEN
 70
0
  9
$PSLTSCALE
 70
1
  9
$TREEDEPTH
 70
3020
  9
$CMLSTYLE
  2
Standard
  9
$CMLJUST
 70
0
  9
$CMLSCALE
 40
20.0
  9
$PROXYGRAPHICS
 70
1
  9
$MEASUREMENT
 70
1
  9
$CELWEIGHT
370
-1
  9
$ENDCAPS
280
0
  9
$JOINSTYLE
280
0
  9
$LWDISPLAY
290
0
  9
$INSUNITS
 70
4
  9
$HYPERLINKBASE
  1

  9
$STYLESHEET
  1

  9
$XEDIT
290
1
  9
$CEPSNTYPE
380
0
  9
$PSTYLEMODE
290
1
  9
$FINGERPRINTGUID
  2
{2AE586E1-EA02-42FB-8152-2044C5686872}
  9
$VERSIONGUID
  2
{DE5F89A8-A0E8-4F0C-A0E6-B8804C5B314A}
  9
$EXTNAMES
290
1
  9
$PSVPSCALE
 40
0.0
  9
$OLESTARTUP
290
0
  9
$SORTENTS
280
127
  9
$INDEXCTL
280
0
  9
$HIDETEXT
280
1
  9
$XCLIPFRAME
280
1
  9
$HALOGAP
280
0
  9
$OBSCOLOR
 70
257
  9
$OBSLTYPE
280
0
  9
$INTERSECTIONDISPLAY
280
0
  9
$INTERSECTIONCOLOR
 70
257
  9
$DIMASSOC
280
2
  9
$PROJECTNAME
  1

  9
$CAMERADISPLAY
290
0
  9
$LENSLENGTH
 40
50.0
  9
$CAMERAHEIGHT
 40
0.0
  9
$STEPSPERSEC
 40
24.0
  9
$STEPSIZE
 40
100.0
  9
$3DDWFPREC
 40
2.0
  9
$PSOLWIDTH
 40
0.005
  9
$PSOLHEIGHT
 40
0.08
  9
$LOFTANG1
 40
1.570796326795
  9
$LOFTANG2
 40
1.570796326795
  9
$LOFTMAG1
 40
0.0
  9
$LOFTMAG2
 40
0.0
  9
$LOFTPARAM
 70
7
  9
$LOFTNORMALS
280
1
  9
$LATITUDE
 40
37.795
  9
$LONGITUDE
 40
-122.394
  9
$NORTHDIRECTION
 40
0.0
  9
$TIMEZONE
 70
-8000
  9
$LIGHTGLYPHDISPLAY
280
1
  9
$TILEMODELIGHTSYNCH
280
1
  9
$CMATERIAL
347
20
  9
$SOLIDHIST
280
0
  9
$SHOWHIST
280
1
  9
$DWFFRAME
280
2
  9
$DGNFRAME
280
2
  9
$REALWORLDSCALE
290
1
  9
$INTERFERECOLOR
 62
256
  9
$CSHADOW
280
0
  9
$SHADOWPLANELOCATION
 40
0.0
  0
ENDSEC
  0
SECTION
  2
CLASSES
  0
CLASS
  1
ACDBDICTIONARYWDFLT
  2
AcDbDictionaryWithDefault
  3
ObjectDBX Classes
 90
0
 91
0
280
0
281
0
  0
CLASS
  1
SUN
  2
AcDbSun
  3
SCENEOE
 90
1153
 91
0
280
0
281
0
  0
CLASS
  1
VISUALSTYLE
  2
AcDbVisualStyle
  3
ObjectDBX Classes
 90
4095
 91
0
280
0
281
0
  0
CLASS
  1
MATERIAL
  2
AcDbMaterial
  3
ObjectDBX Classes
 90
1153
 91
0
280
0
281
0
  0
CLASS
  1
SCALE
  2
AcDbScale
  3
ObjectDBX Classes
 90
1153
 91
0
280
0
281
0
  0
CLASS
  1
TABLESTYLE
  2
AcDbTableStyle
  3
ObjectDBX Classes
 90
4095
 91
0
280
0
281
0
  0
CLASS
  1
MLEADERSTYLE
  2
AcDbMLeaderStyle
  3
ACDB_MLEADERSTYLE_CLASS
 90
4095
 91
0
280
0
281
0
  0
CLASS
  1
DICTIONARYVAR
  2
AcDbDictionaryVar
  3
ObjectDBX Classes
 90
0
 91
0
280
0
281
0
  0
CLASS
  1
CELLSTYLEMAP
  2
AcDbCellStyleMap
  3
ObjectDBX Classes
 90
1152
 91
0
280
0
281
0
  0
CLASS
  1
MENTALRAYRENDERSETTINGS
  2
AcDbMentalRayRenderSettings
  3
SCENEOE
 90
1024
 91
0
280
0
281
0
  0
CLASS
  1
ACDBDETAILVIEWSTYLE
  2
AcDbDetailViewStyle
  3
ObjectDBX Classes
 90
1025
 91
0
280
0
281
0
  0
CLASS
  1
ACDBSECTIONVIEWSTYLE
  2
AcDbSectionViewStyle
  3
ObjectDBX Classes
 90
1025
 91
0
280
0
281
0
  0
CLASS
  1
RASTERVARIABLES
  2
AcDbRasterVariables
  3
ISM
 90
0
 91
0
280
0
281
0
  0
CLASS
  1
ACDBPLACEHOLDER
  2
AcDbPlaceHolder
  3
ObjectDBX Classes
 90
0
 91
0
280
0
281
0
  0
CLASS
  1
LAYOUT
  2
AcDbLayout
  3
ObjectDBX Classes
 90
0
 91
0
280
0
281
0
  0
ENDSEC
  0
SECTION
  2
TABLES
  0
TABLE
  2
VPORT
  5
8
330
0
100
AcDbSymbolTable
 70
1
  0
VPORT
  5
23
330
8
100
AcDbSymbolTableRecord
100
AcDbViewportTableRecord
  2
*Active
 70
0
 10
0.0
 20
0.0
 11
1.0
 21
1.0
 12
0.0
 22
0.0
 13
0.0
 23
0.0
 14
0.5
 24
0.5
 15
0.5
 25
0.5
 16
0.0
 26
0.0
 36
1.0
 17
0.0
 27
0.0
 37
0.0
 40
1000.0
 41
1.34
 42
50.0
 43
0.0
 44
0.0
 50
0.0
 51
0.0
 71
0
 72
1000
 73
1
 74
3
 75
0
 76
0
 77
0
 78
0
281
0
 65
0
146
0.0
  0
ENDTAB
  0
TABLE
  2
LTYPE
  5
2
330
0
100
AcDbSymbolTable
 70
3
  0
LTYPE
  5
24
330
2
100
AcDbSymbolTableRecord
100
AcDbLinetypeTableRecord
  2
ByBlock
 70
0
  3

 72
65
 73
0
 40
0.0
  0
LTYPE
  5
25
330
2
100
AcDbSymbolTableRecord
100
AcDbLinetypeTableRecord
  2
ByLayer
 70
0
  3

 72
65
 73
0
 40
0.0
  0
LTYPE
  5
26
330
2
100
AcDbSymbolTableRecord
100
AcDbLinetypeTableRecord
  2
Continuous
 70
0
  3

 72
65
 73
0
 40
0.0
  0
ENDTAB
  0
TABLE
  2
LAYER
  5
1
330
0
100
AcDbSymbolTable
 70
3
  0
LAYER
  5
27
330
1
100
AcDbSymbolTableRecord
100
AcDbLayerTableRecord
  2
0
 70
0
 62
7
  6
Continuous
370
-3
390
13
347
21
  0
LAYER
  5
28
330
1
100
AcDbSymbolTableRecord
100
AcDbLayerTableRecord
  2
Defpoints
 70
0
 62
7
  6
Continuous
290
0
370
-3
390
13
347
21
  0
LAYER
  5
2F
330
1
100
AcDbSymbolTableRecord
100
AcDbLayerTableRecord
  2
LOGO
 70
0
 62
7
  6
Continuous
370
-3
390
13
347
21
  0
ENDTAB
  0
TABLE
  2
STYLE
  5
5
330
0
100
AcDbSymbolTable
 70
1
  0
STYLE
  5
29
330
5
100
AcDbSymbolTableRecord
100
AcDbTextStyleTableRecord
  2
Standard
 70
0
 40
0.0
 41
1.0
 50
0.0
 71
0
 42
2.5
  3
txt
  4

  0
ENDTAB
  0
TABLE
  2
VIEW
  5
7
330
0
100
AcDbSymbolTable
 70
0
  0
ENDTAB
  0
TABLE
  2
UCS
  5
6
330
0
100
AcDbSymbolTable
 70
0
  0
ENDTAB
  0
TABLE
  2
APPID
  5
3
330
0
100
AcDbSymbolTable
 70
3
  0
APPID
  5
2A
330
3
100
AcDbSymbolTableRecord
100
AcDbRegAppTableRecord
  2
ACAD
 70
0
  0
APPID
  5
3C
330
3
100
AcDbSymbolTableRecord
100
AcDbRegAppTableRecord
  2
HATCHBACKGROUNDCOLOR
 70
0
  0
APPID
  5
3D
330
3
100
AcDbSymbolTableRecord
100
AcDbRegAppTableRecord
  2
EZDXF
 70
0
  0
ENDTAB
  0
TABLE
  2
DIMSTYLE
  5
4
330
0
100
AcDbSymbolTable
 70
1
100
AcDbDimStyleTable
  0
DIMSTYLE
105
2B
330
4
100
AcDbSymbolTableRecord
100
AcDbDimStyleTableRecord
  2
Standard
 70
0
 40
1.0
 41
2.5
 42
0.625
 43
3.75
 44
1.25
 45
0.0
 46
0.0
 47
0.0
 48
0.0
 49
2.5
140
2.5
141
2.5
142
0.0
143
0.03937007874
144
1.0
145
0.0
146
1.0
147
0.625
148
0.0
 69
0
 70
0
 71
0
 72
0
 73
0
 74
0
 75
0
 76
0
 77
1
 78
8
 79
3
170
0
171
3
172
1
173
0
174
0
175
0
176
0
177
0
178
0
179
2
271
2
272
2
273
2
274
3
275
0
276
0
277
2
278
44
279
0
280
0
281
0
282
0
283
0
284
8
285
0
286
0
288
0
289
3
290
0
371
-2
372
-2
  0
ENDTAB
  0
TABLE
  2
BLOCK_RECORD
  5
9
330
0
100
AcDbSymbolTable
 70
2
  0
BLOCK_RECORD
  5
17
330
9
100
AcDbSymbolTableRecord
100
AcDbBlockTableRecord
  2
*Model_Space
340
1A
 70
0
280
1
281
0
  0
BLOCK_RECORD
  5
1B
330
9
100
AcDbSymbolTableRecord
100
AcDbBlockTableRecord
  2
*Paper_Space
340
1E
 70
0
280
1
281
0
  0
ENDTAB
  0
ENDSEC
  0
SECTION
  2
BLOCKS
  0
BLOCK
  5
18
330
17
100
AcDbEntity
  8
0
100
AcDbBlockBegin
  2
*Model_Space
 70
0
 10
0.0
 20
0.0
 30
0.0
  3
*Model_Space
  1

  0
ENDBLK
  5
19
330
17
100
AcDbEntity
  8
0
100
AcDbBlockEnd
  0
BLOCK
  5
1C
330
1B
100
AcDbEntity
  8
0
100
AcDbBlockBegin
  2
*Paper_Space
 70
0
 10
0.0
 20
0.0
 30
0.0
  3
*Paper_Space
  1

  0
ENDBLK
  5
1D
330
1B
100
AcDbEntity
  8
0
100
AcDbBlockEnd
  0
ENDSEC
  0
SECTION
  2
ENTITIES
  0
HATCH
  5
30
330
17
100
AcDbEntity
  8
LOGO
 62
7
100
AcDbHatch
 10
0.0
 20
0.0
 30
0.0
210
0.0
220
0.0
230
1.0
  2
SOLID
 70
1
 71
0
 91
11
 92
3
 72
0
 73
1
 93
97
 10
49.992399999999996
 20
-0.8725999999999999
 10
50.0
 20
0.0
 10
49.992399999999996
 20
0.8725999999999999
 10
49.96955
 20
1.74495
 10
49.9315
 20
2.6168
 10
49.8782
 20
3.4878
 10
49.80975
 20
4.3578
 10
49.7261
 20
5.2264
 10
49.627300000000005
 20
6.093450000000001
 10
49.513400000000004
 20
6.95865
 10
49.3844
 20
7.8217
 10
49.2404
 20
8.6824
 10
49.08135
 20
9.54045
 10
48.928399999999996
 20
10.29225
 10
48.2569
 20
10.087
 10
47.41635
 20
9.821399999999999
 10
46.58045
 20
9.54805
 10
45.7492
 20
9.26655
 10
44.92275
 20
8.97665
 10
44.10125
 20
8.6781
 10
43.2847
 20
8.37065
 10
42.47315
 20
8.0541
 10
41.66665
 20
7.728300000000001
 10
40.865249999999996
 20
7.3931
 10
40.0689
 20
7.048400000000001
 10
39.277499999999996
 20
6.6941500000000005
 10
38.4911
 20
6.330299999999999
 10
37.70955
 20
5.9569
 10
36.9328
 20
5.5739
 10
36.1607
 20
5.1814
 10
35.393049999999995
 20
4.7795
 10
34.6297
 20
4.3683
 10
33.8705
 20
3.948
 10
33.11515
 20
3.5187000000000004
 10
32.36345
 20
3.08065
 10
31.61505
 20
2.63415
 10
30.86975
 20
2.1794000000000002
 10
30.127150000000004
 20
1.7167499999999998
 10
29.3869
 20
1.2466
 10
28.648699999999998
 20
0.76925
 10
27.91205
 20
0.28515
 10
27.1766
 20
-0.2052
 10
26.44185
 20
-0.70135
 10
25.70735
 20
-1.2026999999999999
 10
24.972649999999998
 20
-1.7087499999999998
 10
24.23715
 20
-2.2188
 10
23.5004
 20
-2.73225
 10
22.76175
 20
-3.2483
 10
22.74745
 20
-3.2583
 10
22.9618
 20
-3.698
 10
23.29745
 20
-4.447
 10
23.6087
 20
-5.20645
 10
23.8952
 20
-5.97565
 10
24.1566
 20
-6.75365
 10
24.3927
 20
-7.539750000000001
 10
24.60325
 20
-8.33305
 10
24.788
 20
-9.132750000000001
 10
24.94675
 20
-9.93805
 10
25.07935
 20
-10.748050000000001
 10
25.09105
 20
-10.83785
 10
25.7921
 20
-10.575700000000001
 10
26.666099999999997
 20
-10.25165
 10
27.540100000000002
 20
-9.932549999999999
 10
28.414099999999998
 20
-9.62055
 10
29.2881
 20
-9.31775
 10
30.1621
 20
-9.0262
 10
31.0361
 20
-8.74795
 10
31.910100000000003
 20
-8.485
 10
32.7841
 20
-8.2394
 10
33.658100000000005
 20
-8.013
 10
34.5321
 20
-7.807849999999999
 10
35.4061
 20
-7.625750000000001
 10
36.2801
 20
-7.46865
 10
37.15405
 20
-7.33835
 10
38.02805
 20
-7.23665
 10
38.90205
 20
-7.1654
 10
39.776050000000005
 20
-7.1263499999999995
 10
40.65005
 20
-7.12125
 10
41.52405
 20
-7.15175
 10
42.39805
 20
-7.21955
 10
43.27205
 20
-7.3263
 10
44.146049999999995
 20
-7.47365
 10
45.02005
 20
-7.663150000000001
 10
45.89405
 20
-7.896450000000001
 10
46.76805
 20
-8.175
 10
47.642050000000005
 20
-8.50035
 10
48.51605
 20
-8.87315
 10
49.152499999999996
 20
-9.15655
 10
49.2404
 20
-8.6824
 10
49.3844
 20
-7.8217
 10
49.513400000000004
 20
-6.95865
 10
49.627300000000005
 20
-6.093450000000001
 10
49.7261
 20
-5.2264
 10
49.80975
 20
-4.3578
 10
49.8782
 20
-3.4878
 10
49.9315
 20
-2.6168
 10
49.96955
 20
-1.74495
 97
0
 92
3
 72
0
 73
1
 93
236
 10
48.296299999999995
 20
-12.94095
 10
48.453849999999996
 20
-12.3317
 10
48.315599999999996
 20
-12.33455
 10
47.429100000000005
 20
-12.35245
 10
46.54255
 20
-12.37005
 10
45.65605
 20
-12.3873
 10
44.7695
 20
-12.40425
 10
43.883
 20
-12.42085
 10
42.99645
 20
-12.4371
 10
42.109950000000005
 20
-12.453050000000001
 10
41.2234
 20
-12.46865
 10
40.3369
 20
-12.4839
 10
39.45035
 20
-12.498850000000001
 10
38.56385
 20
-12.51345
 10
37.6773
 20
-12.5277
 10
36.790800000000004
 20
-12.541649999999999
 10
35.90425
 20
-12.555250000000001
 10
35.01775
 20
-12.56855
 10
34.1312
 20
-12.581500000000002
 10
33.2447
 20
-12.5941
 10
32.35815
 20
-12.606349999999999
 10
31.47165
 20
-12.6183
 10
30.585099999999997
 20
-12.629950000000001
 10
29.698600000000003
 20
-12.6412
 10
28.81205
 20
-12.652199999999999
 10
27.925549999999998
 20
-12.662799999999999
 10
27.039
 20
-12.673100000000002
 10
26.1525
 20
-12.683050000000001
 10
25.265949999999997
 20
-12.69265
 10
24.37945
 20
-12.70195
 10
23.4929
 20
-12.7109
 10
22.606399999999997
 20
-12.719549999999998
 10
21.719849999999997
 20
-12.727849999999998
 10
20.83335
 20
-12.7358
 10
19.9468
 20
-12.743450000000001
 10
19.060299999999998
 20
-12.75075
 10
18.17375
 20
-12.7577
 10
17.28725
 20
-12.764349999999999
 10
16.400699999999997
 20
-12.77065
 10
15.5142
 20
-12.77665
 10
14.627650000000001
 20
-12.7823
 10
13.74115
 20
-12.7876
 10
12.8546
 20
-12.79255
 10
11.9681
 20
-12.7972
 10
11.08155
 20
-12.80155
 10
10.19505
 20
-12.8055
 10
9.3085
 20
-12.809149999999999
 10
8.422
 20
-12.812499999999998
 10
7.535450000000001
 20
-12.81545
 10
6.648950000000001
 20
-12.818150000000001
 10
5.7624
 20
-12.82045
 10
4.8759
 20
-12.82245
 10
3.98935
 20
-12.8241
 10
3.10285
 20
-12.82545
 10
2.2163
 20
-12.8264
 10
1.3298
 20
-12.8271
 10
0.44325
 20
-12.8274
 10
-0.44325
 20
-12.8274
 10
-1.3298
 20
-12.8271
 10
-2.2163
 20
-12.8264
 10
-3.10285
 20
-12.82545
 10
-3.98935
 20
-12.8241
 10
-4.8759
 20
-12.82245
 10
-5.7624
 20
-12.82045
 10
-6.648950000000001
 20
-12.818150000000001
 10
-7.535450000000001
 20
-12.81545
 10
-8.422
 20
-12.812499999999998
 10
-9.3085
 20
-12.809149999999999
 10
-10.19505
 20
-12.8055
 10
-11.08155
 20
-12.80155
 10
-11.9681
 20
-12.7972
 10
-12.8546
 20
-12.79255
 10
-13.74115
 20
-12.7876
 10
-14.627650000000001
 20
-12.7823
 10
-15.5142
 20
-12.77665
 10
-16.400699999999997
 20
-12.77065
 10
-17.28725
 20
-12.764349999999999
 10
-18.17375
 20
-12.7577
 10
-19.060299999999998
 20
-12.75075
 10
-19.9468
 20
-12.743450000000001
 10
-20.83335
 20
-12.7358
 10
-21.719849999999997
 20
-12.727849999999998
 10
-22.606399999999997
 20
-12.719549999999998
 10
-23.4929
 20
-12.7109
 10
-24.37945
 20
-12.70195
 10
-25.265949999999997
 20
-12.69265
 10
-26.1525
 20
-12.683050000000001
 10
-27.039
 20
-12.673100000000002
 10
-27.925549999999998
 20
-12.662799999999999
 10
-28.81205
 20
-12.652199999999999
 10
-29.698600000000003
 20
-12.6412
 10
-30.585099999999997
 20
-12.629950000000001
 10
-31.47165
 20
-12.6183
 10
-32.35815
 20
-12.606349999999999
 10
-33.2447
 20
-12.5941
 10
-34.1312
 20
-12.581500000000002
 10
-35.01775
 20
-12.56855
 10
-35.90425
 20
-12.555250000000001
 10
-36.790800000000004
 20
-12.541649999999999
 10
-37.6773
 20
-12.5277
 10
-38.56385
 20
-12.51345
 10
-39.45035
 20
-12.498850000000001
 10
-40.3369
 20
-12.4839
 10
-41.2234
 20
-12.46865
 10
-42.109950000000005
 20
-12.453050000000001
 10
-42.99645
 20
-12.4371
 10
-43.883
 20
-12.42085
 10
-44.7695
 20
-12.40425
 10
-45.65605
 20
-12.3873
 10
-46.54255
 20
-12.37005
 10
-47.429100000000005
 20
-12.35245
 10
-48.315599999999996
 20
-12.33455
 10
-48.453849999999996
 20
-12.3317
 10
-48.296299999999995
 20
-12.94095
 10
-48.0631
 20
-13.78185
 10
-47.81525
 20
-14.6186
 10
-47.55285
 20
-15.450849999999999
 10
-47.27595
 20
-16.2784
 10
-46.98465
 20
-17.101
 10
-46.678999999999995
 20
-17.918400000000002
 10
-46.3592
 20
-18.73035
 10
-46.02525
 20
-19.53655
 10
-45.67725
 20
-20.336850000000002
 10
-45.3859
 20
-20.9762
 10
-44.88445
 20
-20.951449999999998
 10
-44.056450000000005
 20
-20.881800000000002
 10
-43.226150000000004
 20
-20.7839
 10
-42.39275
 20
-20.6584
 10
-41.55565
 20
-20.50635
 10
-40.71425
 20
-20.3291
 10
-39.867999999999995
 20
-20.1282
 10
-39.016400000000004
 20
-19.90565
 10
-38.15915
 20
-19.66385
 10
-37.29585
 20
-19.40545
 10
-36.42615
 20
-19.1336
 10
-35.5498
 20
-18.85165
 10
-34.666599999999995
 20
-18.563499999999998
 10
-33.7762
 20
-18.2731
 10
-32.8785
 20
-17.984849999999998
 10
-31.973249999999997
 20
-17.70325
 10
-31.0603
 20
-17.4329
 10
-30.1397
 20
-17.17845
 10
-29.21145
 20
-16.94445
 10
-28.2759
 20
-16.7354
 10
-27.333550000000002
 20
-16.555400000000002
 10
-26.38505
 20
-16.4082
 10
-25.43155
 20
-16.297
 10
-24.47435
 20
-16.2242
 10
-23.5149
 20
-16.19155
 10
-22.55495
 20
-16.199749999999998
 10
-21.59625
 20
-16.24865
 10
-20.6403
 20
-16.33715
 10
-19.6887
 20
-16.46315
 10
-18.742549999999998
 20
-16.6239
 10
-17.80285
 20
-16.81605
 10
-16.8702
 20
-17.035600000000002
 10
-15.945
 20
-17.27835
 10
-15.02745
 20
-17.53975
 10
-14.117650000000001
 20
-17.8152
 10
-13.215399999999999
 20
-18.099999999999998
 10
-12.32065
 20
-18.38965
 10
-11.433200000000001
 20
-18.67965
 10
-10.55275
 20
-18.965799999999998
 10
-9.6791
 20
-19.2441
 10
-8.812050000000001
 20
-19.510949999999998
 10
-7.9512
 20
-19.76305
 10
-7.0962499999999995
 20
-19.99745
 10
-6.24685
 20
-20.21155
 10
-5.4026
 20
-20.40315
 10
-4.563
 20
-20.5705
 10
-3.72745
 20
-20.712
 10
-2.8954
 20
-20.826549999999997
 10
-2.0661
 20
-20.9132
 10
-1.23885
 20
-20.9713
 10
-0.41279999999999994
 20
-21.00045
 10
0.41279999999999994
 20
-21.00045
 10
1.23885
 20
-20.9713
 10
2.0661
 20
-20.9132
 10
2.8954
 20
-20.826549999999997
 10
3.72745
 20
-20.712
 10
4.563
 20
-20.5705
 10
5.4026
 20
-20.40315
 10
6.24685
 20
-20.21155
 10
7.0962499999999995
 20
-19.99745
 10
7.9512
 20
-19.76305
 10
8.812050000000001
 20
-19.510949999999998
 10
9.6791
 20
-19.2441
 10
10.55275
 20
-18.965799999999998
 10
11.433200000000001
 20
-18.67965
 10
12.32065
 20
-18.38965
 10
13.215399999999999
 20
-18.099999999999998
 10
14.117650000000001
 20
-17.8152
 10
15.02745
 20
-17.53975
 10
15.945
 20
-17.27835
 10
16.8702
 20
-17.035600000000002
 10
17.80285
 20
-16.81605
 10
18.742549999999998
 20
-16.6239
 10
19.6887
 20
-16.46315
 10
20.6403
 20
-16.33715
 10
21.59625
 20
-16.24865
 10
22.55495
 20
-16.199749999999998
 10
23.5149
 20
-16.19155
 10
24.47435
 20
-16.2242
 10
25.43155
 20
-16.297
 10
26.38505
 20
-16.4082
 10
27.333550000000002
 20
-16.555400000000002
 10
28.2759
 20
-16.7354
 10
29.21145
 20
-16.94445
 10
30.1397
 20
-17.17845
 10
31.0603
 20
-17.4329
 10
31.973249999999997
 20
-17.70325
 10
32.8785
 20
-17.984849999999998
 10
33.7762
 20
-18.2731
 10
34.666599999999995
 20
-18.563499999999998
 10
35.5498
 20
-18.85165
 10
36.42615
 20
-19.1336
 10
37.29585
 20
-19.40545
 10
38.15915
 20
-19.66385
 10
39.016400000000004
 20
-19.90565
 10
39.867999999999995
 20
-20.1282
 10
40.71425
 20
-20.3291
 10
41.55565
 20
-20.50635
 10
42.39275
 20
-20.6584
 10
43.226150000000004
 20
-20.7839
 10
44.056450000000005
 20
-20.881800000000002
 10
44.88445
 20
-20.951449999999998
 10
45.3859
 20
-20.9762
 10
45.67725
 20
-20.336850000000002
 10
46.02525
 20
-19.53655
 10
46.3592
 20
-18.73035
 10
46.678999999999995
 20
-17.918400000000002
 10
46.98465
 20
-17.101
 10
47.27595
 20
-16.2784
 10
47.55285
 20
-15.450849999999999
 10
47.81525
 20
-14.6186
 10
48.0631
 20
-13.78185
 97
0
 92
3
 72
0
 73
1
 93
97
 10
-49.2404
 20
-8.6824
 10
-49.152499999999996
 20
-9.15655
 10
-48.51605
 20
-8.87315
 10
-47.642050000000005
 20
-8.50035
 10
-46.76805
 20
-8.175
 10
-45.89405
 20
-7.896450000000001
 10
-45.02005
 20
-7.663150000000001
 10
-44.146049999999995
 20
-7.47365
 10
-43.27205
 20
-7.3263
 10
-42.39805
 20
-7.21955
 10
-41.52405
 20
-7.15175
 10
-40.65005
 20
-7.12125
 10
-39.776050000000005
 20
-7.1263499999999995
 10
-38.90205
 20
-7.1654
 10
-38.02805
 20
-7.23665
 10
-37.15405
 20
-7.33835
 10
-36.2801
 20
-7.46865
 10
-35.4061
 20
-7.625750000000001
 10
-34.5321
 20
-7.807849999999999
 10
-33.658100000000005
 20
-8.013
 10
-32.7841
 20
-8.2394
 10
-31.910100000000003
 20
-8.485
 10
-31.0361
 20
-8.74795
 10
-30.1621
 20
-9.0262
 10
-29.2881
 20
-9.31775
 10
-28.414099999999998
 20
-9.62055
 10
-27.540100000000002
 20
-9.932549999999999
 10
-26.666099999999997
 20
-10.25165
 10
-25.7921
 20
-10.575700000000001
 10
-25.09105
 20
-10.83785
 10
-25.07935
 20
-10.748050000000001
 10
-24.94675
 20
-9.93805
 10
-24.788
 20
-9.132750000000001
 10
-24.60325
 20
-8.33305
 10
-24.3927
 20
-7.539750000000001
 10
-24.1566
 20
-6.75365
 10
-23.8952
 20
-5.97565
 10
-23.6087
 20
-5.20645
 10
-23.29745
 20
-4.447
 10
-22.9618
 20
-3.698
 10
-22.74745
 20
-3.2583
 10
-22.76175
 20
-3.2483
 10
-23.5004
 20
-2.73225
 10
-24.23715
 20
-2.2188
 10
-24.972649999999998
 20
-1.7087499999999998
 10
-25.70735
 20
-1.2026999999999999
 10
-26.44185
 20
-0.70135
 10
-27.1766
 20
-0.2052
 10
-27.91205
 20
0.28515
 10
-28.648699999999998
 20
0.76925
 10
-29.3869
 20
1.2466
 10
-30.127150000000004
 20
1.7167499999999998
 10
-30.86975
 20
2.1794000000000002
 10
-31.61505
 20
2.63415
 10
-32.36345
 20
3.08065
 10
-33.11515
 20
3.5187000000000004
 10
-33.8705
 20
3.948
 10
-34.6297
 20
4.3683
 10
-35.393049999999995
 20
4.7795
 10
-36.1607
 20
5.1814
 10
-36.9328
 20
5.5739
 10
-37.70955
 20
5.9569
 10
-38.4911
 20
6.330299999999999
 10
-39.277499999999996
 20
6.6941500000000005
 10
-40.0689
 20
7.048400000000001
 10
-40.865249999999996
 20
7.3931
 10
-41.66665
 20
7.728300000000001
 10
-42.47315
 20
8.0541
 10
-43.2847
 20
8.37065
 10
-44.10125
 20
8.6781
 10
-44.92275
 20
8.97665
 10
-45.7492
 20
9.26655
 10
-46.58045
 20
9.54805
 10
-47.41635
 20
9.821399999999999
 10
-48.2569
 20
10.087
 10
-48.928399999999996
 20
10.29225
 10
-49.08135
 20
9.54045
 10
-49.2404
 20
8.6824
 10
-49.3844
 20
7.8217
 10
-49.513400000000004
 20
6.95865
 10
-49.627300000000005
 20
6.093450000000001
 10
-49.7261
 20
5.2264
 10
-49.80975
 20
4.3578
 10
-49.8782
 20
3.4878
 10
-49.9315
 20
2.6168
 10
-49.96955
 20
1.74495
 10
-49.992399999999996
 20
0.8725999999999999
 10
-50.0
 20
0.0
 10
-49.992399999999996
 20
-0.8725999999999999
 10
-49.96955
 20
-1.74495
 10
-49.9315
 20
-2.6168
 10
-49.8782
 20
-3.4878
 10
-49.80975
 20
-4.3578
 10
-49.7261
 20
-5.2264
 10
-49.627300000000005
 20
-6.093450000000001
 10
-49.513400000000004
 20
-6.95865
 10
-49.3844
 20
-7.8217
 97
0
 92
3
 72
0
 73
1
 93
110
 10
-37.9777
 20
31.334649999999996
 10
-38.51565
 20
31.88045
 10
-38.8573
 20
31.466
 10
-39.40055
 20
30.78305
 10
-39.9318
 20
30.09075
 10
-40.45085
 20
29.38925
 10
-40.9576
 20
28.6788
 10
-41.4519
 20
27.959650000000003
 10
-41.933550000000004
 20
27.231949999999998
 10
-42.4024
 20
26.49595
 10
-42.85835
 20
25.7519
 10
-43.30125
 20
25.0
 10
-43.730999999999995
 20
24.2405
 10
-44.1474
 20
23.4736
 10
-44.55035
 20
22.6995
 10
-44.9397
 20
21.91855
 10
-45.3154
 20
21.1309
 10
-45.67725
 20
20.336850000000002
 10
-46.02525
 20
19.53655
 10
-46.3592
 20
18.73035
 10
-46.678999999999995
 20
17.918400000000002
 10
-46.98465
 20
17.101
 10
-47.27595
 20
16.2784
 10
-47.55285
 20
15.450849999999999
 10
-47.81525
 20
14.6186
 10
-47.893
 20
14.3561
 10
-47.87165
 20
14.34955
 10
-46.99295
 20
14.06975
 10
-46.11695
 20
13.78165
 10
-45.24395
 20
13.4848
 10
-44.37435
 20
13.178899999999999
 10
-43.50835
 20
12.86375
 10
-42.6464
 20
12.538949999999998
 10
-41.78865
 20
12.20445
 10
-40.93545
 20
11.86
 10
-40.087
 20
11.505550000000001
 10
-39.2435
 20
11.14105
 10
-38.40515
 20
10.766399999999999
 10
-37.57215
 20
10.3816
 10
-36.7446
 20
9.9868
 10
-35.922599999999996
 20
9.58205
 10
-35.10625
 20
9.1675
 10
-34.2956
 20
8.7433
 10
-33.49065
 20
8.30965
 10
-32.6914
 20
7.86685
 10
-31.89785
 20
7.41515
 10
-31.10985
 20
6.9549
 10
-30.3273
 20
6.4864500000000005
 10
-29.55015
 20
6.0102
 10
-28.778150000000004
 20
5.5266
 10
-28.0111
 20
5.0361
 10
-27.2488
 20
4.5392
 10
-26.491
 20
4.036449999999999
 10
-25.73735
 20
3.5284000000000004
 10
-24.98755
 20
3.01565
 10
-24.2413
 20
2.4989
 10
-23.498150000000003
 20
1.97875
 10
-22.7578
 20
1.4559499999999999
 10
-22.01975
 20
0.9312499999999999
 10
-21.2836
 20
0.40540000000000004
 10
-20.79445
 20
0.05505
 10
-20.4564
 20
0.5329999999999999
 10
-19.961000000000002
 20
1.1874
 10
-19.4447
 20
1.82545
 10
-18.908
 20
2.44645
 10
-18.35145
 20
3.0497
 10
-17.7757
 20
3.6346499999999997
 10
-17.1813
 20
4.2007
 10
-16.5689
 20
4.7471499999999995
 10
-15.9391
 20
5.273499999999999
 10
-15.2926
 20
5.7792
 10
-15.258849999999999
 20
5.80385
 10
-15.5835
 20
6.22285
 10
-16.1274
 20
6.9202
 10
-16.673550000000002
 20
7.61555
 10
-17.222
 20
8.30885
 10
-17.772850000000002
 20
9.00005
 10
-18.32615
 20
9.68915
 10
-18.881899999999998
 20
10.376100000000001
 10
-19.44025
 20
11.0609
 10
-20.0012
 20
11.7435
 10
-20.56475
 20
12.4239
 10
-21.131
 20
13.1021
 10
-21.6999
 20
13.778099999999998
 10
-22.2715
 20
14.45185
 10
-22.845850000000002
 20
15.1234
 10
-23.4229
 20
15.79275
 10
-24.002599999999997
 20
16.45995
 10
-24.58505
 20
17.125
 10
-25.170199999999998
 20
17.78795
 10
-25.75795
 20
18.44875
 10
-26.348349999999996
 20
19.10755
 10
-26.941349999999996
 20
19.76435
 10
-27.536899999999996
 20
20.4192
 10
-28.134900000000002
 20
21.07215
 10
-28.735349999999997
 20
21.723300000000002
 10
-29.338199999999997
 20
22.37265
 10
-29.943350000000002
 20
23.02035
 10
-30.550749999999997
 20
23.6665
 10
-31.16025
 20
24.3111
 10
-31.77185
 20
24.9543
 10
-32.3854
 20
25.596200000000003
 10
-33.00085
 20
26.236900000000002
 10
-33.61805
 20
26.876499999999997
 10
-34.2369
 20
27.51515
 10
-34.8573
 20
28.153
 10
-35.4791
 20
28.790149999999997
 10
-36.10215
 20
29.4267
 10
-36.7264
 20
30.0629
 10
-37.351600000000005
 20
30.6988
 97
0
 92
3
 72
0
 73
1
 93
121
 10
-16.45445
 20
46.9097
 10
-16.5473
 20
47.180699999999995
 10
-17.101
 20
46.98465
 10
-17.918400000000002
 20
46.678999999999995
 10
-18.73035
 20
46.3592
 10
-19.53655
 20
46.02525
 10
-20.336850000000002
 20
45.67725
 10
-21.1309
 20
45.3154
 10
-21.91855
 20
44.9397
 10
-22.6995
 20
44.55035
 10
-23.4736
 20
44.1474
 10
-24.2405
 20
43.730999999999995
 10
-25.0
 20
43.30125
 10
-25.7519
 20
42.85835
 10
-26.49595
 20
42.4024
 10
-27.231949999999998
 20
41.933550000000004
 10
-27.959650000000003
 20
41.4519
 10
-28.6788
 20
40.9576
 10
-29.38925
 20
40.45085
 10
-30.09075
 20
39.9318
 10
-30.78305
 20
39.40055
 10
-31.466
 20
38.8573
 10
-32.1394
 20
38.3022
 10
-32.802949999999996
 20
37.7355
 10
-33.45655
 20
37.15725
 10
-34.0999
 20
36.567699999999995
 10
-34.7329
 20
35.967
 10
-35.29885
 20
35.410849999999996
 10
-35.16495
 20
35.267199999999995
 10
-34.5551
 20
34.61265
 10
-33.94515
 20
33.95725
 10
-33.33525
 20
33.30095
 10
-32.72555
 20
32.64365
 10
-32.11635
 20
31.98515
 10
-31.50775
 20
31.3254
 10
-30.9
 20
30.6643
 10
-30.2932
 20
30.001749999999998
 10
-29.6875
 20
29.337699999999998
 10
-29.083150000000003
 20
28.671950000000002
 10
-28.4802
 20
28.004550000000002
 10
-27.87885
 20
27.3354
 10
-27.279249999999998
 20
26.6644
 10
-26.681500000000003
 20
25.991550000000004
 10
-26.085649999999998
 20
25.316699999999997
 10
-25.491950000000003
 20
24.6399
 10
-24.90045
 20
23.96105
 10
-24.3112
 20
23.28015
 10
-23.72435
 20
22.5972
 10
-23.14
 20
21.912100000000002
 10
-22.558149999999998
 20
21.22485
 10
-21.97895
 20
20.53545
 10
-21.40245
 20
19.84395
 10
-20.82865
 20
19.15025
 10
-20.257649999999998
 20
18.45445
 10
-19.68945
 20
17.7565
 10
-19.12415
 20
17.0564
 10
-18.561700000000002
 20
16.3542
 10
-18.00215
 20
15.64995
 10
-17.4455
 20
14.94365
 10
-16.89175
 20
14.235349999999999
 10
-16.3409
 20
13.52505
 10
-15.792900000000001
 20
12.812850000000001
 10
-15.2478
 20
12.098749999999999
 10
-14.705499999999999
 20
11.38285
 10
-14.166
 20
10.6652
 10
-13.629199999999999
 20
9.94585
 10
-13.09515
 20
9.22485
 10
-12.56365
 20
8.5023
 10
-12.08235
 20
7.843450000000001
 10
-11.8338
 20
7.9799
 10
-11.1018
 20
8.35125
 10
-10.3582
 20
8.698699999999999
 10
-9.60375
 20
9.021899999999999
 10
-8.83925
 20
9.320549999999999
 10
-8.06545
 20
9.59425
 10
-7.283199999999999
 20
9.84275
 10
-6.4933000000000005
 20
10.06585
 10
-6.291149999999999
 20
10.1159
 10
-6.30555
 20
10.175099999999999
 10
-6.51615
 20
11.03845
 10
-6.72775
 20
11.9017
 10
-6.940300000000001
 20
12.764700000000001
 10
-7.153700000000001
 20
13.62755
 10
-7.367999999999999
 20
14.4902
 10
-7.5832
 20
15.35265
 10
-7.799200000000001
 20
16.21495
 10
-8.016
 20
17.07695
 10
-8.233699999999999
 20
17.9388
 10
-8.4522
 20
18.800349999999998
 10
-8.67155
 20
19.6617
 10
-8.8917
 20
20.522750000000002
 10
-9.1128
 20
21.383499999999998
 10
-9.33475
 20
22.2439
 10
-9.557649999999999
 20
23.10405
 10
-9.7815
 20
23.9638
 10
-10.00635
 20
24.82315
 10
-10.23225
 20
25.682100000000002
 10
-10.45925
 20
26.540599999999998
 10
-10.6874
 20
27.398650000000004
 10
-10.91675
 20
28.256249999999998
 10
-11.147400000000001
 20
29.11325
 10
-11.37935
 20
29.9697
 10
-11.61275
 20
30.82555
 10
-11.84765
 20
31.680750000000003
 10
-12.084100000000001
 20
32.5353
 10
-12.3223
 20
33.3891
 10
-12.5622
 20
34.2421
 10
-12.80405
 20
35.09435
 10
-13.0478
 20
35.9457
 10
-13.2937
 20
36.79615
 10
-13.5418
 20
37.6456
 10
-13.792250000000001
 20
38.49405
 10
-14.0451
 20
39.34145
 10
-14.300550000000001
 20
40.18775
 10
-14.558750000000002
 20
41.0328
 10
-14.819799999999999
 20
41.87665
 10
-15.083849999999998
 20
42.71915
 10
-15.351049999999999
 20
43.560300000000005
 10
-15.621550000000001
 20
44.4
 10
-15.895500000000002
 20
45.23815
 10
-16.1731
 20
46.074749999999995
 97
0
 92
3
 72
0
 73
1
 93
126
 10
11.6361
 20
48.4496
 10
11.68565
 20
48.613299999999995
 10
11.24755
 20
48.7185
 10
10.3956
 20
48.9074
 10
9.54045
 20
49.08135
 10
8.6824
 20
49.2404
 10
7.8217
 20
49.3844
 10
6.95865
 20
49.513400000000004
 10
6.093450000000001
 20
49.627300000000005
 10
5.2264
 20
49.7261
 10
4.3578
 20
49.80975
 10
3.4878
 20
49.8782
 10
2.6168
 20
49.9315
 10
1.74495
 20
49.96955
 10
0.8725999999999999
 20
49.992399999999996
 10
0.0
 20
50.0
 10
-0.8725999999999999
 20
49.992399999999996
 10
-1.74495
 20
49.96955
 10
-2.6168
 20
49.9315
 10
-3.4878
 20
49.8782
 10
-4.3578
 20
49.80975
 10
-5.2264
 20
49.7261
 10
-6.093450000000001
 20
49.627300000000005
 10
-6.95865
 20
49.513400000000004
 10
-7.8217
 20
49.3844
 10
-8.6824
 20
49.2404
 10
-9.54045
 20
49.08135
 10
-10.3956
 20
48.9074
 10
-11.24755
 20
48.7185
 10
-11.68565
 20
48.613299999999995
 10
-11.6361
 20
48.4496
 10
-11.37795
 20
47.582
 10
-11.1241
 20
46.71405
 10
-10.8744
 20
45.8457
 10
-10.6286
 20
44.97705
 10
-10.38655
 20
44.1081
 10
-10.14805
 20
43.2389
 10
-9.912899999999999
 20
42.3694
 10
-9.681
 20
41.4997
 10
-9.45215
 20
40.629799999999996
 10
-9.2262
 20
39.759699999999995
 10
-9.00295
 20
38.88945
 10
-8.78235
 20
38.01905
 10
-8.5642
 20
37.14845
 10
-8.3484
 20
36.27775
 10
-8.1348
 20
35.406949999999995
 10
-7.9232499999999995
 20
34.536
 10
-7.713699999999999
 20
33.66495
 10
-7.50605
 20
32.7938
 10
-7.3001
 20
31.92255
 10
-7.0958
 20
31.051250000000003
 10
-6.8931000000000004
 20
30.179850000000002
 10
-6.6918500000000005
 20
29.30835
 10
-6.492050000000001
 20
28.43675
 10
-6.293500000000001
 20
27.565099999999997
 10
-6.09625
 20
26.69335
 10
-5.9002
 20
25.82155
 10
-5.7052499999999995
 20
24.9496
 10
-5.51135
 20
24.0776
 10
-5.31855
 20
23.2055
 10
-5.1267
 20
22.3333
 10
-4.93575
 20
21.46095
 10
-4.7458
 20
20.5885
 10
-4.5567
 20
19.71595
 10
-4.3685
 20
18.84325
 10
-4.181150000000001
 20
17.9704
 10
-3.9946
 20
17.0974
 10
-3.80895
 20
16.22425
 10
-3.62415
 20
15.350900000000001
 10
-3.4402500000000003
 20
14.47735
 10
-3.25715
 20
13.60365
 10
-3.075
 20
12.729650000000001
 10
-2.8937500000000003
 20
11.85545
 10
-2.71345
 20
10.981
 10
-2.6698
 20
10.76805
 10
-2.45855
 20
10.7921
 10
-1.6404999999999998
 20
10.85845
 10
-0.82065
 20
10.898299999999999
 10
0.0
 20
10.9116
 10
0.82065
 20
10.898299999999999
 10
1.6404999999999998
 20
10.85845
 10
2.45855
 20
10.7921
 10
2.6698
 20
10.76805
 10
2.71345
 20
10.981
 10
2.8937500000000003
 20
11.85545
 10
3.075
 20
12.729650000000001
 10
3.25715
 20
13.60365
 10
3.4402500000000003
 20
14.47735
 10
3.62415
 20
15.350900000000001
 10
3.80895
 20
16.22425
 10
3.9946
 20
17.0974
 10
4.181150000000001
 20
17.9704
 10
4.3685
 20
18.84325
 10
4.5567
 20
19.71595
 10
4.7458
 20
20.5885
 10
4.93575
 20
21.46095
 10
5.1267
 20
22.3333
 10
5.31855
 20
23.2055
 10
5.51135
 20
24.0776
 10
5.7052499999999995
 20
24.9496
 10
5.9002
 20
25.82155
 10
6.09625
 20
26.69335
 10
6.293500000000001
 20
27.565099999999997
 10
6.492050000000001
 20
28.43675
 10
6.6918500000000005
 20
29.30835
 10
6.8931000000000004
 20
30.179850000000002
 10
7.0958
 20
31.051250000000003
 10
7.3001
 20
31.92255
 10
7.50605
 20
32.7938
 10
7.713699999999999
 20
33.66495
 10
7.9232499999999995
 20
34.536
 10
8.1348
 20
35.406949999999995
 10
8.3484
 20
36.27775
 10
8.5642
 20
37.14845
 10
8.78235
 20
38.01905
 10
9.00295
 20
38.88945
 10
9.2262
 20
39.759699999999995
 10
9.45215
 20
40.629799999999996
 10
9.681
 20
41.4997
 10
9.912899999999999
 20
42.3694
 10
10.14805
 20
43.2389
 10
10.38655
 20
44.1081
 10
10.6286
 20
44.97705
 10
10.8744
 20
45.8457
 10
11.1241
 20
46.71405
 10
11.37795
 20
47.582
 97
0
 92
3
 72
0
 73
1
 93
121
 10
35.16495
 20
35.267199999999995
 10
35.29885
 20
35.410849999999996
 10
34.7329
 20
35.967
 10
34.0999
 20
36.567699999999995
 10
33.45655
 20
37.15725
 10
32.802949999999996
 20
37.7355
 10
32.1394
 20
38.3022
 10
31.466
 20
38.8573
 10
30.78305
 20
39.40055
 10
30.09075
 20
39.9318
 10
29.38925
 20
40.45085
 10
28.6788
 20
40.9576
 10
27.959650000000003
 20
41.4519
 10
27.231949999999998
 20
41.933550000000004
 10
26.49595
 20
42.4024
 10
25.7519
 20
42.85835
 10
25.0
 20
43.30125
 10
24.2405
 20
43.730999999999995
 10
23.4736
 20
44.1474
 10
22.6995
 20
44.55035
 10
21.91855
 20
44.9397
 10
21.1309
 20
45.3154
 10
20.336850000000002
 20
45.67725
 10
19.53655
 20
46.02525
 10
18.73035
 20
46.3592
 10
17.918400000000002
 20
46.678999999999995
 10
17.101
 20
46.98465
 10
16.5473
 20
47.180699999999995
 10
16.45445
 20
46.9097
 10
16.1731
 20
46.074749999999995
 10
15.895500000000002
 20
45.23815
 10
15.621550000000001
 20
44.4
 10
15.351049999999999
 20
43.560300000000005
 10
15.083849999999998
 20
42.71915
 10
14.819799999999999
 20
41.87665
 10
14.558750000000002
 20
41.0328
 10
14.300550000000001
 20
40.18775
 10
14.0451
 20
39.34145
 10
13.792250000000001
 20
38.49405
 10
13.5418
 20
37.6456
 10
13.2937
 20
36.79615
 10
13.0478
 20
35.9457
 10
12.80405
 20
35.09435
 10
12.5622
 20
34.2421
 10
12.3223
 20
33.3891
 10
12.084100000000001
 20
32.5353
 10
11.84765
 20
31.680750000000003
 10
11.61275
 20
30.82555
 10
11.37935
 20
29.9697
 10
11.147400000000001
 20
29.11325
 10
10.91675
 20
28.256249999999998
 10
10.6874
 20
27.398650000000004
 10
10.45925
 20
26.540599999999998
 10
10.23225
 20
25.682100000000002
 10
10.00635
 20
24.82315
 10
9.7815
 20
23.9638
 10
9.557649999999999
 20
23.10405
 10
9.33475
 20
22.2439
 10
9.1128
 20
21.383499999999998
 10
8.8917
 20
20.522750000000002
 10
8.67155
 20
19.6617
 10
8.4522
 20
18.800349999999998
 10
8.233699999999999
 20
17.9388
 10
8.016
 20
17.07695
 10
7.799200000000001
 20
16.21495
 10
7.5832
 20
15.35265
 10
7.367999999999999
 20
14.4902
 10
7.153700000000001
 20
13.62755
 10
6.940300000000001
 20
12.764700000000001
 10
6.72775
 20
11.9017
 10
6.51615
 20
11.03845
 10
6.30555
 20
10.175099999999999
 10
6.291149999999999
 20
10.1159
 10
6.4933000000000005
 20
10.06585
 10
7.283199999999999
 20
9.84275
 10
8.06545
 20
9.59425
 10
8.83925
 20
9.320549999999999
 10
9.60375
 20
9.021899999999999
 10
10.3582
 20
8.698699999999999
 10
11.1018
 20
8.35125
 10
11.8338
 20
7.9799
 10
12.08235
 20
7.843450000000001
 10
12.56365
 20
8.5023
 10
13.09515
 20
9.22485
 10
13.629199999999999
 20
9.94585
 10
14.166
 20
10.6652
 10
14.705499999999999
 20
11.38285
 10
15.2478
 20
12.098749999999999
 10
15.792900000000001
 20
12.812850000000001
 10
16.3409
 20
13.52505
 10
16.89175
 20
14.235349999999999
 10
17.4455
 20
14.94365
 10
18.00215
 20
15.64995
 10
18.561700000000002
 20
16.3542
 10
19.12415
 20
17.0564
 10
19.68945
 20
17.7565
 10
20.257649999999998
 20
18.45445
 10
20.82865
 20
19.15025
 10
21.40245
 20
19.84395
 10
21.97895
 20
20.53545
 10
22.558149999999998
 20
21.22485
 10
23.14
 20
21.912100000000002
 10
23.72435
 20
22.5972
 10
24.3112
 20
23.28015
 10
24.90045
 20
23.96105
 10
25.491950000000003
 20
24.6399
 10
26.085649999999998
 20
25.316699999999997
 10
26.681500000000003
 20
25.991550000000004
 10
27.279249999999998
 20
26.6644
 10
27.87885
 20
27.3354
 10
28.4802
 20
28.004550000000002
 10
29.083150000000003
 20
28.671950000000002
 10
29.6875
 20
29.337699999999998
 10
30.2932
 20
30.001749999999998
 10
30.9
 20
30.6643
 10
31.50775
 20
31.3254
 10
32.11635
 20
31.98515
 10
32.72555
 20
32.64365
 10
33.33525
 20
33.30095
 10
33.94515
 20
33.95725
 10
34.5551
 20
34.61265
 97
0
 92
3
 72
0
 73
1
 93
110
 10
47.87165
 20
14.34955
 10
47.893
 20
14.3561
 10
47.81525
 20
14.6186
 10
47.55285
 20
15.450849999999999
 10
47.27595
 20
16.2784
 10
46.98465
 20
17.101
 10
46.678999999999995
 20
17.918400000000002
 10
46.3592
 20
18.73035
 10
46.02525
 20
19.53655
 10
45.67725
 20
20.336850000000002
 10
45.3154
 20
21.1309
 10
44.9397
 20
21.91855
 10
44.55035
 20
22.6995
 10
44.1474
 20
23.4736
 10
43.730999999999995
 20
24.2405
 10
43.30125
 20
25.0
 10
42.85835
 20
25.7519
 10
42.4024
 20
26.49595
 10
41.933550000000004
 20
27.231949999999998
 10
41.4519
 20
27.959650000000003
 10
40.9576
 20
28.6788
 10
40.45085
 20
29.38925
 10
39.9318
 20
30.09075
 10
39.40055
 20
30.78305
 10
38.8573
 20
31.466
 10
38.51565
 20
31.88045
 10
37.9777
 20
31.334649999999996
 10
37.351600000000005
 20
30.6988
 10
36.7264
 20
30.0629
 10
36.10215
 20
29.4267
 10
35.4791
 20
28.790149999999997
 10
34.8573
 20
28.153
 10
34.2369
 20
27.51515
 10
33.61805
 20
26.876499999999997
 10
33.00085
 20
26.236900000000002
 10
32.3854
 20
25.596200000000003
 10
31.77185
 20
24.9543
 10
31.16025
 20
24.3111
 10
30.550749999999997
 20
23.6665
 10
29.943350000000002
 20
23.02035
 10
29.338199999999997
 20
22.37265
 10
28.735349999999997
 20
21.723300000000002
 10
28.134900000000002
 20
21.07215
 10
27.536899999999996
 20
20.4192
 10
26.941349999999996
 20
19.76435
 10
26.348349999999996
 20
19.10755
 10
25.75795
 20
18.44875
 10
25.170199999999998
 20
17.78795
 10
24.58505
 20
17.125
 10
24.002599999999997
 20
16.45995
 10
23.4229
 20
15.79275
 10
22.845850000000002
 20
15.1234
 10
22.2715
 20
14.45185
 10
21.6999
 20
13.778099999999998
 10
21.131
 20
13.1021
 10
20.56475
 20
12.4239
 10
20.0012
 20
11.7435
 10
19.44025
 20
11.0609
 10
18.881899999999998
 20
10.376100000000001
 10
18.32615
 20
9.68915
 10
17.772850000000002
 20
9.00005
 10
17.222
 20
8.30885
 10
16.673550000000002
 20
7.61555
 10
16.1274
 20
6.9202
 10
15.5835
 20
6.22285
 10
15.258849999999999
 20
5.80385
 10
15.2926
 20
5.7792
 10
15.9391
 20
5.273499999999999
 10
16.5689
 20
4.7471499999999995
 10
17.1813
 20
4.2007
 10
17.7757
 20
3.6346499999999997
 10
18.35145
 20
3.0497
 10
18.908
 20
2.44645
 10
19.4447
 20
1.82545
 10
19.961000000000002
 20
1.1874
 10
20.4564
 20
0.5329999999999999
 10
20.79445
 20
0.05505
 10
21.2836
 20
0.40540000000000004
 10
22.01975
 20
0.9312499999999999
 10
22.7578
 20
1.4559499999999999
 10
23.498150000000003
 20
1.97875
 10
24.2413
 20
2.4989
 10
24.98755
 20
3.01565
 10
25.73735
 20
3.5284000000000004
 10
26.491
 20
4.036449999999999
 10
27.2488
 20
4.5392
 10
28.0111
 20
5.0361
 10
28.778150000000004
 20
5.5266
 10
29.55015
 20
6.0102
 10
30.3273
 20
6.4864500000000005
 10
31.10985
 20
6.9549
 10
31.89785
 20
7.41515
 10
32.6914
 20
7.86685
 10
33.49065
 20
8.30965
 10
34.2956
 20
8.7433
 10
35.10625
 20
9.1675
 10
35.922599999999996
 20
9.58205
 10
36.7446
 20
9.9868
 10
37.57215
 20
10.3816
 10
38.40515
 20
10.766399999999999
 10
39.2435
 20
11.14105
 10
40.087
 20
11.505550000000001
 10
40.93545
 20
11.86
 10
41.78865
 20
12.20445
 10
42.6464
 20
12.538949999999998
 10
43.50835
 20
12.86375
 10
44.37435
 20
13.178899999999999
 10
45.24395
 20
13.4848
 10
46.11695
 20
13.78165
 10
46.99295
 20
14.06975
 97
0
 92
3
 72
0
 73
1
 93
91
 10
22.3299
 20
-11.383799999999999
 10
22.26285
 20
-10.8354
 10
22.15045
 20
-10.11215
 10
22.0146
 20
-9.392949999999999
 10
21.85535
 20
-8.67855
 10
21.67295
 20
-7.9697000000000005
 10
21.46755
 20
-7.2672
 10
21.2394
 20
-6.57175
 10
20.988699999999998
 20
-5.884049999999999
 10
20.71575
 20
-5.20495
 10
20.420849999999998
 20
-4.53505
 10
20.1043
 20
-3.87515
 10
19.7664
 20
-3.2258500000000003
 10
19.40755
 20
-2.58795
 10
19.02815
 20
-1.9620499999999998
 10
18.62855
 20
-1.3488
 10
18.2092
 20
-0.74895
 10
17.7705
 20
-0.163
 10
17.313000000000002
 20
0.4083
 10
16.83715
 20
0.9643999999999999
 10
16.3434
 20
1.50475
 10
15.83235
 20
2.0286999999999997
 10
15.304499999999999
 20
2.53575
 10
14.7604
 20
3.02535
 10
14.2007
 20
3.49695
 10
13.6259
 20
3.9501
 10
13.03665
 20
4.38425
 10
12.4336
 20
4.79905
 10
11.81735
 20
5.19395
 10
11.18855
 20
5.5686
 10
10.54795
 20
5.92255
 10
9.896099999999999
 20
6.2555
 10
9.23375
 20
6.567
 10
8.56165
 20
6.856800000000001
 10
7.88045
 20
7.12455
 10
7.1909
 20
7.36995
 10
6.4937499999999995
 20
7.5927999999999995
 10
5.78965
 20
7.79285
 10
5.07945
 20
7.969850000000001
 10
4.363849999999999
 20
8.1236
 10
3.6436499999999996
 20
8.254
 10
2.91955
 20
8.3609
 10
2.1924
 20
8.44415
 10
1.4628999999999999
 20
8.50365
 10
0.73185
 20
8.5394
 10
0.0
 20
8.551300000000001
 10
-0.73185
 20
8.5394
 10
-1.4628999999999999
 20
8.50365
 10
-2.1924
 20
8.44415
 10
-2.91955
 20
8.3609
 10
-3.6436499999999996
 20
8.254
 10
-4.363849999999999
 20
8.1236
 10
-5.07945
 20
7.969850000000001
 10
-5.78965
 20
7.79285
 10
-6.4937499999999995
 20
7.5927999999999995
 10
-7.1909
 20
7.36995
 10
-7.88045
 20
7.12455
 10
-8.56165
 20
6.856800000000001
 10
-9.23375
 20
6.567
 10
-9.896099999999999
 20
6.2555
 10
-10.54795
 20
5.92255
 10
-11.18855
 20
5.5686
 10
-11.81735
 20
5.19395
 10
-12.4336
 20
4.79905
 10
-13.03665
 20
4.38425
 10
-13.6259
 20
3.9501
 10
-14.2007
 20
3.49695
 10
-14.7604
 20
3.02535
 10
-15.304499999999999
 20
2.53575
 10
-15.83235
 20
2.0286999999999997
 10
-16.3434
 20
1.50475
 10
-16.83715
 20
0.9643999999999999
 10
-17.313000000000002
 20
0.4083
 10
-17.7705
 20
-0.163
 10
-18.2092
 20
-0.74895
 10
-18.62855
 20
-1.3488
 10
-19.02815
 20
-1.9620499999999998
 10
-19.40755
 20
-2.58795
 10
-19.7664
 20
-3.2258500000000003
 10
-20.1043
 20
-3.87515
 10
-20.420849999999998
 20
-4.53505
 10
-20.71575
 20
-5.20495
 10
-20.988699999999998
 20
-5.884049999999999
 10
-21.2394
 20
-6.57175
 10
-21.46755
 20
-7.2672
 10
-21.67295
 20
-7.9697000000000005
 10
-21.85535
 20
-8.67855
 10
-22.0146
 20
-9.392949999999999
 10
-22.15045
 20
-10.11215
 10
-22.26285
 20
-10.8354
 10
-22.3299
 20
-11.383799999999999
 97
0
 92
3
 72
0
 73
1
 93
208
 10
43.30125
 20
-25.0
 10
43.689
 20
-24.31465
 10
42.766749999999995
 20
-24.20595
 10
41.8271
 20
-24.0645
 10
40.891149999999996
 20
-23.89455
 10
39.9595
 20
-23.69835
 10
39.03275
 20
-23.4784
 10
38.111250000000005
 20
-23.237650000000002
 10
37.19545
 20
-22.9794
 10
36.28575
 20
-22.707150000000002
 10
35.38235
 20
-22.4248
 10
34.48565
 20
-22.13635
 10
33.5958
 20
-21.846
 10
32.71315
 20
-21.55815
 10
31.837799999999998
 20
-21.27705
 10
30.97005
 20
-21.00705
 10
30.1099
 20
-20.75225
 10
29.257450000000002
 20
-20.51655
 10
28.41265
 20
-20.3035
 10
27.575149999999997
 20
-20.116300000000003
 10
26.7445
 20
-19.957549999999998
 10
25.919900000000002
 20
-19.8295
 10
25.10035
 20
-19.733800000000002
 10
24.28455
 20
-19.67175
 10
23.4709
 20
-19.644000000000002
 10
22.6578
 20
-19.651
 10
21.8435
 20
-19.69255
 10
21.02635
 20
-19.768250000000002
 10
20.20495
 20
-19.87705
 10
19.378
 20
-20.01765
 10
18.5447
 20
-20.18815
 10
17.7043
 20
-20.3861
 10
16.8564
 20
-20.60865
 10
16.0009
 20
-20.85245
 10
15.1377
 20
-21.113799999999998
 10
14.26685
 20
-21.38875
 10
13.388549999999999
 20
-21.6731
 10
12.503
 20
-21.96245
 10
11.61035
 20
-22.25255
 10
10.71095
 20
-22.53905
 10
9.805
 20
-22.81785
 10
8.8928
 20
-23.0849
 10
7.9746999999999995
 20
-23.33655
 10
7.051
 20
-23.569300000000002
 10
6.122199999999999
 20
-23.7801
 10
5.1888
 20
-23.96605
 10
4.25125
 20
-24.1248
 10
3.3103000000000002
 20
-24.25425
 10
2.3665499999999997
 20
-24.35285
 10
1.42075
 20
-24.41925
 10
0.4737
 20
-24.452650000000002
 10
-0.4737
 20
-24.452650000000002
 10
-1.42075
 20
-24.41925
 10
-2.3665499999999997
 20
-24.35285
 10
-3.3103000000000002
 20
-24.25425
 10
-4.25125
 20
-24.1248
 10
-5.1888
 20
-23.96605
 10
-6.122199999999999
 20
-23.7801
 10
-7.051
 20
-23.569300000000002
 10
-7.9746999999999995
 20
-23.33655
 10
-8.8928
 20
-23.0849
 10
-9.805
 20
-22.81785
 10
-10.71095
 20
-22.53905
 10
-11.61035
 20
-22.25255
 10
-12.503
 20
-21.96245
 10
-13.388549999999999
 20
-21.6731
 10
-14.26685
 20
-21.38875
 10
-15.1377
 20
-21.113799999999998
 10
-16.0009
 20
-20.85245
 10
-16.8564
 20
-20.60865
 10
-17.7043
 20
-20.3861
 10
-18.5447
 20
-20.18815
 10
-19.378
 20
-20.01765
 10
-20.20495
 20
-19.87705
 10
-21.02635
 20
-19.768250000000002
 10
-21.8435
 20
-19.69255
 10
-22.6578
 20
-19.651
 10
-23.4709
 20
-19.644000000000002
 10
-24.28455
 20
-19.67175
 10
-25.10035
 20
-19.733800000000002
 10
-25.919900000000002
 20
-19.8295
 10
-26.7445
 20
-19.957549999999998
 10
-27.575149999999997
 20
-20.116300000000003
 10
-28.41265
 20
-20.3035
 10
-29.257450000000002
 20
-20.51655
 10
-30.1099
 20
-20.75225
 10
-30.97005
 20
-21.00705
 10
-31.837799999999998
 20
-21.27705
 10
-32.71315
 20
-21.55815
 10
-33.5958
 20
-21.846
 10
-34.48565
 20
-22.13635
 10
-35.38235
 20
-22.4248
 10
-36.28575
 20
-22.707150000000002
 10
-37.19545
 20
-22.9794
 10
-38.111250000000005
 20
-23.237650000000002
 10
-39.03275
 20
-23.4784
 10
-39.9595
 20
-23.69835
 10
-40.891149999999996
 20
-23.89455
 10
-41.8271
 20
-24.0645
 10
-42.766749999999995
 20
-24.20595
 10
-43.689
 20
-24.31465
 10
-43.30125
 20
-25.0
 10
-42.85835
 20
-25.7519
 10
-42.4024
 20
-26.49595
 10
-41.933550000000004
 20
-27.231949999999998
 10
-41.4519
 20
-27.959650000000003
 10
-40.9576
 20
-28.6788
 10
-40.45085
 20
-29.38925
 10
-39.9318
 20
-30.09075
 10
-39.40055
 20
-30.78305
 10
-39.36595
 20
-30.82655
 10
-38.8916
 20
-30.7349
 10
-38.04925
 20
-30.54655
 10
-37.203
 20
-30.33305
 10
-36.3521
 20
-30.09605
 10
-35.49575
 20
-29.8376
 10
-34.6333
 20
-29.56045
 10
-33.7641
 20
-29.26795
 10
-32.8874
 20
-28.9641
 10
-32.0027
 20
-28.65355
 10
-31.109399999999997
 20
-28.341549999999998
 10
-30.20695
 20
-28.0339
 10
-29.294949999999996
 20
-27.73665
 10
-28.373150000000003
 20
-27.45635
 10
-27.441349999999996
 20
-27.1994
 10
-26.4998
 20
-26.97225
 10
-25.549100000000003
 20
-26.780900000000003
 10
-24.59035
 20
-26.6308
 10
-23.62525
 20
-26.52645
 10
-22.656000000000002
 20
-26.471149999999998
 10
-21.68515
 20
-26.4666
 10
-20.7154
 20
-26.512999999999998
 10
-19.7494
 20
-26.60885
 10
-18.7894
 20
-26.7511
 10
-17.8372
 20
-26.9355
 10
-16.89395
 20
-27.156750000000002
 10
-15.9604
 20
-27.40885
 10
-15.0368
 20
-27.6855
 10
-14.123099999999999
 20
-27.9802
 10
-13.219
 20
-28.286450000000002
 10
-12.3241
 20
-28.59815
 10
-11.437899999999999
 20
-28.90935
 10
-10.559849999999999
 20
-29.2147
 10
-9.68935
 20
-29.50955
 10
-8.825750000000001
 20
-29.789700000000003
 10
-7.968400000000001
 20
-30.051699999999997
 10
-7.116550000000001
 20
-30.2927
 10
-6.26955
 20
-30.51045
 10
-5.42655
 20
-30.7034
 10
-4.58685
 20
-30.870199999999997
 10
-3.74975
 20
-31.01005
 10
-2.91465
 20
-31.122349999999997
 10
-2.081
 20
-31.2068
 10
-1.24825
 20
-31.2632
 10
-0.416
 20
-31.291449999999998
 10
0.416
 20
-31.291449999999998
 10
1.24825
 20
-31.2632
 10
2.081
 20
-31.2068
 10
2.91465
 20
-31.122349999999997
 10
3.74975
 20
-31.01005
 10
4.58685
 20
-30.870199999999997
 10
5.42655
 20
-30.7034
 10
6.26955
 20
-30.51045
 10
7.116550000000001
 20
-30.2927
 10
7.968400000000001
 20
-30.051699999999997
 10
8.825750000000001
 20
-29.789700000000003
 10
9.68935
 20
-29.50955
 10
10.559849999999999
 20
-29.2147
 10
11.437899999999999
 20
-28.90935
 10
12.3241
 20
-28.59815
 10
13.219
 20
-28.286450000000002
 10
14.123099999999999
 20
-27.9802
 10
15.0368
 20
-27.6855
 10
15.9604
 20
-27.40885
 10
16.89395
 20
-27.156750000000002
 10
17.8372
 20
-26.9355
 10
18.7894
 20
-26.7511
 10
19.7494
 20
-26.60885
 10
20.7154
 20
-26.512999999999998
 10
21.68515
 20
-26.4666
 10
22.656000000000002
 20
-26.471149999999998
 10
23.62525
 20
-26.52645
 10
24.59035
 20
-26.6308
 10
25.549100000000003
 20
-26.780900000000003
 10
26.4998
 20
-26.97225
 10
27.441349999999996
 20
-27.1994
 10
28.373150000000003
 20
-27.45635
 10
29.294949999999996
 20
-27.73665
 10
30.20695
 20
-28.0339
 10
31.109399999999997
 20
-28.341549999999998
 10
32.0027
 20
-28.65355
 10
32.8874
 20
-28.9641
 10
33.7641
 20
-29.26795
 10
34.6333
 20
-29.56045
 10
35.49575
 20
-29.8376
 10
36.3521
 20
-30.09605
 10
37.203
 20
-30.33305
 10
38.04925
 20
-30.54655
 10
38.8916
 20
-30.7349
 10
39.36595
 20
-30.82655
 10
39.40055
 20
-30.78305
 10
39.9318
 20
-30.09075
 10
40.45085
 20
-29.38925
 10
40.9576
 20
-28.6788
 10
41.4519
 20
-27.959650000000003
 10
41.933550000000004
 20
-27.231949999999998
 10
42.4024
 20
-26.49595
 10
42.85835
 20
-25.7519
 97
0
 92
3
 72
0
 73
1
 93
181
 10
36.567699999999995
 20
-34.0999
 10
37.0236
 20
-33.602349999999994
 10
36.37855
 20
-33.4397
 10
35.456450000000004
 20
-33.18285
 10
34.5397
 20
-32.90625
 10
33.6291
 20
-32.61365
 10
32.72525
 20
-32.30955
 10
31.828899999999997
 20
-31.998900000000003
 10
30.94055
 20
-31.6871
 10
30.06085
 20
-31.379849999999998
 10
29.1902
 20
-31.082949999999997
 10
28.32915
 20
-30.802249999999997
 10
27.47795
 20
-30.543300000000002
 10
26.63665
 20
-30.311149999999998
 10
25.805149999999998
 20
-30.1104
 10
24.9828
 20
-29.94475
 10
24.1685
 20
-29.817149999999998
 10
23.36055
 20
-29.729699999999998
 10
22.55675
 20
-29.683749999999996
 10
21.754550000000002
 20
-29.68
 10
20.951249999999998
 20
-29.7185
 10
20.1442
 20
-29.79865
 10
19.33115
 20
-29.919249999999998
 10
18.510299999999997
 20
-30.078349999999997
 10
17.6805
 20
-30.273149999999998
 10
16.841
 20
-30.5
 10
15.991549999999998
 20
-30.754550000000002
 10
15.132200000000001
 20
-31.031799999999997
 10
14.26325
 20
-31.32625
 10
13.3851
 20
-31.6321
 10
12.498249999999999
 20
-31.943500000000004
 10
11.603299999999999
 20
-32.25475
 10
10.700750000000001
 20
-32.5604
 10
9.7913
 20
-32.8554
 10
8.8756
 20
-33.13515
 10
7.954350000000001
 20
-33.3957
 10
7.02835
 20
-33.63375
 10
6.0983
 20
-33.84655
 10
5.1649
 20
-34.0319
 10
4.22895
 20
-34.18825
 10
3.2910000000000004
 20
-34.3144
 10
2.35165
 20
-34.40955
 10
1.4113499999999999
 20
-34.4732
 10
0.4705
 20
-34.5051
 10
-0.4705
 20
-34.5051
 10
-1.4113499999999999
 20
-34.4732
 10
-2.35165
 20
-34.40955
 10
-3.2910000000000004
 20
-34.3144
 10
-4.22895
 20
-34.18825
 10
-5.1649
 20
-34.0319
 10
-6.0983
 20
-33.84655
 10
-7.02835
 20
-33.63375
 10
-7.954350000000001
 20
-33.3957
 10
-8.8756
 20
-33.13515
 10
-9.7913
 20
-32.8554
 10
-10.700750000000001
 20
-32.5604
 10
-11.603299999999999
 20
-32.25475
 10
-12.498249999999999
 20
-31.943500000000004
 10
-13.3851
 20
-31.6321
 10
-14.26325
 20
-31.32625
 10
-15.132200000000001
 20
-31.031799999999997
 10
-15.991549999999998
 20
-30.754550000000002
 10
-16.841
 20
-30.5
 10
-17.6805
 20
-30.273149999999998
 10
-18.510299999999997
 20
-30.078349999999997
 10
-19.33115
 20
-29.919249999999998
 10
-20.1442
 20
-29.79865
 10
-20.951249999999998
 20
-29.7185
 10
-21.754550000000002
 20
-29.68
 10
-22.55675
 20
-29.683749999999996
 10
-23.36055
 20
-29.729699999999998
 10
-24.1685
 20
-29.817149999999998
 10
-24.9828
 20
-29.94475
 10
-25.805149999999998
 20
-30.1104
 10
-26.63665
 20
-30.311149999999998
 10
-27.47795
 20
-30.543300000000002
 10
-28.32915
 20
-30.802249999999997
 10
-29.1902
 20
-31.082949999999997
 10
-30.06085
 20
-31.379849999999998
 10
-30.94055
 20
-31.6871
 10
-31.828899999999997
 20
-31.998900000000003
 10
-32.72525
 20
-32.30955
 10
-33.6291
 20
-32.61365
 10
-34.5397
 20
-32.90625
 10
-35.456450000000004
 20
-33.18285
 10
-36.37855
 20
-33.4397
 10
-37.0236
 20
-33.602349999999994
 10
-36.567699999999995
 20
-34.0999
 10
-35.967
 20
-34.7329
 10
-35.35535
 20
-35.35535
 10
-34.7329
 20
-35.967
 10
-34.0999
 20
-36.567699999999995
 10
-33.45655
 20
-37.15725
 10
-32.802949999999996
 20
-37.7355
 10
-32.1394
 20
-38.3022
 10
-31.466
 20
-38.8573
 10
-30.78305
 20
-39.40055
 10
-30.09075
 20
-39.9318
 10
-29.38925
 20
-40.45085
 10
-28.6788
 20
-40.9576
 10
-27.959650000000003
 20
-41.4519
 10
-27.231949999999998
 20
-41.933550000000004
 10
-26.49595
 20
-42.4024
 10
-25.7519
 20
-42.85835
 10
-25.0
 20
-43.30125
 10
-24.2405
 20
-43.730999999999995
 10
-23.4736
 20
-44.1474
 10
-22.6995
 20
-44.55035
 10
-21.91855
 20
-44.9397
 10
-21.1309
 20
-45.3154
 10
-20.336850000000002
 20
-45.67725
 10
-19.53655
 20
-46.02525
 10
-18.73035
 20
-46.3592
 10
-17.918400000000002
 20
-46.678999999999995
 10
-17.101
 20
-46.98465
 10
-16.2784
 20
-47.27595
 10
-15.450849999999999
 20
-47.55285
 10
-14.6186
 20
-47.81525
 10
-13.78185
 20
-48.0631
 10
-12.94095
 20
-48.296299999999995
 10
-12.0961
 20
-48.5148
 10
-11.24755
 20
-48.7185
 10
-10.3956
 20
-48.9074
 10
-9.54045
 20
-49.08135
 10
-8.6824
 20
-49.2404
 10
-7.8217
 20
-49.3844
 10
-6.95865
 20
-49.513400000000004
 10
-6.093450000000001
 20
-49.627300000000005
 10
-5.2264
 20
-49.7261
 10
-4.3578
 20
-49.80975
 10
-3.4878
 20
-49.8782
 10
-2.6168
 20
-49.9315
 10
-1.74495
 20
-49.96955
 10
-0.8725999999999999
 20
-49.992399999999996
 10
-0.0
 20
-50.0
 10
0.8725999999999999
 20
-49.992399999999996
 10
1.74495
 20
-49.96955
 10
2.6168
 20
-49.9315
 10
3.4878
 20
-49.8782
 10
4.3578
 20
-49.80975
 10
5.2264
 20
-49.7261
 10
6.093450000000001
 20
-49.627300000000005
 10
6.95865
 20
-49.513400000000004
 10
7.8217
 20
-49.3844
 10
8.6824
 20
-49.2404
 10
9.54045
 20
-49.08135
 10
10.3956
 20
-48.9074
 10
11.24755
 20
-48.7185
 10
12.0961
 20
-48.5148
 10
12.94095
 20
-48.296299999999995
 10
13.78185
 20
-48.0631
 10
14.6186
 20
-47.81525
 10
15.450849999999999
 20
-47.55285
 10
16.2784
 20
-47.27595
 10
17.101
 20
-46.98465
 10
17.918400000000002
 20
-46.678999999999995
 10
18.73035
 20
-46.3592
 10
19.53655
 20
-46.02525
 10
20.336850000000002
 20
-45.67725
 10
21.1309
 20
-45.3154
 10
21.91855
 20
-44.9397
 10
22.6995
 20
-44.55035
 10
23.4736
 20
-44.1474
 10
24.2405
 20
-43.730999999999995
 10
25.0
 20
-43.30125
 10
25.7519
 20
-42.85835
 10
26.49595
 20
-42.4024
 10
27.231949999999998
 20
-41.933550000000004
 10
27.959650000000003
 20
-41.4519
 10
28.6788
 20
-40.9576
 10
29.38925
 20
-40.45085
 10
30.09075
 20
-39.9318
 10
30.78305
 20
-39.40055
 10
31.466
 20
-38.8573
 10
32.1394
 20
-38.3022
 10
32.802949999999996
 20
-37.7355
 10
33.45655
 20
-37.15725
 10
34.0999
 20
-36.567699999999995
 10
34.7329
 20
-35.967
 10
35.35535
 20
-35.35535
 10
35.967
 20
-34.7329
 97
0
 75
0
 76
1
 98
0
  0
LWPOLYLINE
  5
31
330
17
100
AcDbEntity
  8
LOGO
100
AcDbPolyline
 90
97
 70
1
 10
49.992399999999996
 20
-0.8725999999999999
 10
50.0
 20
0.0
 10
49.992399999999996
 20
0.8725999999999999
 10
49.96955
 20
1.74495
 10
49.9315
 20
2.6168
 10
49.8782
 20
3.4878
 10
49.80975
 20
4.3578
 10
49.7261
 20
5.2264
 10
49.627300000000005
 20
6.093450000000001
 10
49.513400000000004
 20
6.95865
 10
49.3844
 20
7.8217
 10
49.2404
 20
8.6824
 10
49.08135
 20
9.54045
 10
48.928399999999996
 20
10.29225
 10
48.2569
 20
10.087
 10
47.41635
 20
9.821399999999999
 10
46.58045
 20
9.54805
 10
45.7492
 20
9.26655
 10
44.92275
 20
8.97665
 10
44.10125
 20
8.6781
 10
43.2847
 20
8.37065
 10
42.47315
 20
8.0541
 10
41.66665
 20
7.728300000000001
 10
40.865249999999996
 20
7.3931
 10
40.0689
 20
7.048400000000001
 10
39.277499999999996
 20
6.6941500000000005
 10
38.4911
 20
6.330299999999999
 10
37.70955
 20
5.9569
 10
36.9328
 20
5.5739
 10
36.1607
 20
5.1814
 10
35.393049999999995
 20
4.7795
 10
34.6297
 20
4.3683
 10
33.8705
 20
3.948
 10
33.11515
 20
3.5187000000000004
 10
32.36345
 20
3.08065
 10
31.61505
 20
2.63415
 10
30.86975
 20
2.1794000000000002
 10
30.127150000000004
 20
1.7167499999999998
 10
29.3869
 20
1.2466
 10
28.648699999999998
 20
0.76925
 10
27.91205
 20
0.28515
 10
27.1766
 20
-0.2052
 10
26.44185
 20
-0.70135
 10
25.70735
 20
-1.2026999999999999
 10
24.972649999999998
 20
-1.7087499999999998
 10
24.23715
 20
-2.2188
 10
23.5004
 20
-2.73225
 10
22.76175
 20
-3.2483
 10
22.74745
 20
-3.2583
 10
22.9618
 20
-3.698
 10
23.29745
 20
-4.447
 10
23.6087
 20
-5.20645
 10
23.8952
 20
-5.97565
 10
24.1566
 20
-6.75365
 10
24.3927
 20
-7.539750000000001
 10
24.60325
 20
-8.33305
 10
24.788
 20
-9.132750000000001
 10
24.94675
 20
-9.93805
 10
25.07935
 20
-10.748050000000001
 10
25.09105
 20
-10.83785
 10
25.7921
 20
-10.575700000000001
 10
26.666099999999997
 20
-10.25165
 10
27.540100000000002
 20
-9.932549999999999
 10
28.414099999999998
 20
-9.62055
 10
29.2881
 20
-9.31775
 10
30.1621
 20
-9.0262
 10
31.0361
 20
-8.74795
 10
31.910100000000003
 20
-8.485
 10
32.7841
 20
-8.2394
 10
33.658100000000005
 20
-8.013
 10
34.5321
 20
-7.807849999999999
 10
35.4061
 20
-7.625750000000001
 10
36.2801
 20
-7.46865
 10
37.15405
 20
-7.33835
 10
38.02805
 20
-7.23665
 10
38.90205
 20
-7.1654
 10
39.776050000000005
 20
-7.1263499999999995
 10
40.65005
 20
-7.12125
 10
41.52405
 20
-7.15175
 10
42.39805
 20
-7.21955
 10
43.27205
 20
-7.3263
 10
44.146049999999995
 20
-7.47365
 10
45.02005
 20
-7.663150000000001
 10
45.89405
 20
-7.896450000000001
 10
46.76805
 20
-8.175
 10
47.642050000000005
 20
-8.50035
 10
48.51605
 20
-8.87315
 10
49.152499999999996
 20
-9.15655
 10
49.2404
 20
-8.6824
 10
49.3844
 20
-7.8217
 10
49.513400000000004
 20
-6.95865
 10
49.627300000000005
 20
-6.093450000000001
 10
49.7261
 20
-5.2264
 10
49.80975
 20
-4.3578
 10
49.8782
 20
-3.4878
 10
49.9315
 20
-2.6168
 10
49.96955
 20
-1.74495
  0
LWPOLYLINE
  5
32
330
17
100
AcDbEntity
  8
LOGO
100
AcDbPolyline
 90
236
 70
1
 10
48.296299999999995
 20
-12.94095
 10
48.453849999999996
 20
-12.3317
 10
48.315599999999996
 20
-12.33455
 10
47.429100000000005
 20
-12.35245
 10
46.54255
 20
-12.37005
 10
45.65605
 20
-12.3873
 10
44.7695
 20
-12.40425
 10
43.883
 20
-12.42085
 10
42.99645
 20
-12.4371
 10
42.109950000000005
 20
-12.453050000000001
 10
41.2234
 20
-12.46865
 10
40.3369
 20
-12.4839
 10
39.45035
 20
-12.498850000000001
 10
38.56385
 20
-12.51345
 10
37.6773
 20
-12.5277
 10
36.790800000000004
 20
-12.541649999999999
 10
35.90425
 20
-12.555250000000001
 10
35.01775
 20
-12.56855
 10
34.1312
 20
-12.581500000000002
 10
33.2447
 20
-12.5941
 10
32.35815
 20
-12.606349999999999
 10
31.47165
 20
-12.6183
 10
30.585099999999997
 20
-12.629950000000001
 10
29.698600000000003
 20
-12.6412
 10
28.81205
 20
-12.652199999999999
 10
27.925549999999998
 20
-12.662799999999999
 10
27.039
 20
-12.673100000000002
 10
26.1525
 20
-12.683050000000001
 10
25.265949999999997
 20
-12.69265
 10
24.37945
 20
-12.70195
 10
23.4929
 20
-12.7109
 10
22.606399999999997
 20
-12.719549999999998
 10
21.719849999999997
 20
-12.727849999999998
 10
20.83335
 20
-12.7358
 10
19.9468
 20
-12.743450000000001
 10
19.060299999999998
 20
-12.75075
 10
18.17375
 20
-12.7577
 10
17.28725
 20
-12.764349999999999
 10
16.400699999999997
 20
-12.77065
 10
15.5142
 20
-12.77665
 10
14.627650000000001
 20
-12.7823
 10
13.74115
 20
-12.7876
 10
12.8546
 20
-12.79255
 10
11.9681
 20
-12.7972
 10
11.08155
 20
-12.80155
 10
10.19505
 20
-12.8055
 10
9.3085
 20
-12.809149999999999
 10
8.422
 20
-12.812499999999998
 10
7.535450000000001
 20
-12.81545
 10
6.648950000000001
 20
-12.818150000000001
 10
5.7624
 20
-12.82045
 10
4.8759
 20
-12.82245
 10
3.98935
 20
-12.8241
 10
3.10285
 20
-12.82545
 10
2.2163
 20
-12.8264
 10
1.3298
 20
-12.8271
 10
0.44325
 20
-12.8274
 10
-0.44325
 20
-12.8274
 10
-1.3298
 20
-12.8271
 10
-2.2163
 20
-12.8264
 10
-3.10285
 20
-12.82545
 10
-3.98935
 20
-12.8241
 10
-4.8759
 20
-12.82245
 10
-5.7624
 20
-12.82045
 10
-6.648950000000001
 20
-12.818150000000001
 10
-7.535450000000001
 20
-12.81545
 10
-8.422
 20
-12.812499999999998
 10
-9.3085
 20
-12.809149999999999
 10
-10.19505
 20
-12.8055
 10
-11.08155
 20
-12.80155
 10
-11.9681
 20
-12.7972
 10
-12.8546
 20
-12.79255
 10
-13.74115
 20
-12.7876
 10
-14.627650000000001
 20
-12.7823
 10
-15.5142
 20
-12.77665
 10
-16.400699999999997
 20
-12.77065
 10
-17.28725
 20
-12.764349999999999
 10
-18.17375
 20
-12.7577
 10
-19.060299999999998
 20
-12.75075
 10
-19.9468
 20
-12.743450000000001
 10
-20.83335
 20
-12.7358
 10
-21.719849999999997
 20
-12.727849999999998
 10
-22.606399999999997
 20
-12.719549999999998
 10
-23.4929
 20
-12.7109
 10
-24.37945
 20
-12.70195
 10
-25.265949999999997
 20
-12.69265
 10
-26.1525
 20
-12.683050000000001
 10
-27.039
 20
-12.673100000000002
 10
-27.925549999999998
 20
-12.662799999999999
 10
-28.81205
 20
-12.652199999999999
 10
-29.698600000000003
 20
-12.6412
 10
-30.585099999999997
 20
-12.629950000000001
 10
-31.47165
 20
-12.6183
 10
-32.35815
 20
-12.606349999999999
 10
-33.2447
 20
-12.5941
 10
-34.1312
 20
-12.581500000000002
 10
-35.01775
 20
-12.56855
 10
-35.90425
 20
-12.555250000000001
 10
-36.790800000000004
 20
-12.541649999999999
 10
-37.6773
 20
-12.5277
 10
-38.56385
 20
-12.51345
 10
-39.45035
 20
-12.498850000000001
 10
-40.3369
 20
-12.4839
 10
-41.2234
 20
-12.46865
 10
-42.109950000000005
 20
-12.453050000000001
 10
-42.99645
 20
-12.4371
 10
-43.883
 20
-12.42085
 10
-44.7695
 20
-12.40425
 10
-45.65605
 20
-12.3873
 10
-46.54255
 20
-12.37005
 10
-47.429100000000005
 20
-12.35245
 10
-48.315599999999996
 20
-12.33455
 10
-48.453849999999996
 20
-12.3317
 10
-48.296299999999995
 20
-12.94095
 10
-48.0631
 20
-13.78185
 10
-47.81525
 20
-14.6186
 10
-47.55285
 20
-15.450849999999999
 10
-47.27595
 20
-16.2784
 10
-46.98465
 20
-17.101
 10
-46.678999999999995
 20
-17.918400000000002
 10
-46.3592
 20
-18.73035
 10
-46.02525
 20
-19.53655
 10
-45.67725
 20
-20.336850000000002
 10
-45.3859
 20
-20.9762
 10
-44.88445
 20
-20.951449999999998
 10
-44.056450000000005
 20
-20.881800000000002
 10
-43.226150000000004
 20
-20.7839
 10
-42.39275
 20
-20.6584
 10
-41.55565
 20
-20.50635
 10
-40.71425
 20
-20.3291
 10
-39.867999999999995
 20
-20.1282
 10
-39.016400000000004
 20
-19.90565
 10
-38.15915
 20
-19.66385
 10
-37.29585
 20
-19.40545
 10
-36.42615
 20
-19.1336
 10
-35.5498
 20
-18.85165
 10
-34.666599999999995
 20
-18.563499999999998
 10
-33.7762
 20
-18.2731
 10
-32.8785
 20
-17.984849999999998
 10
-31.973249999999997
 20
-17.70325
 10
-31.0603
 20
-17.4329
 10
-30.1397
 20
-17.17845
 10
-29.21145
 20
-16.94445
 10
-28.2759
 20
-16.7354
 10
-27.333550000000002
 20
-16.555400000000002
 10
-26.38505
 20
-16.4082
 10
-25.43155
 20
-16.297
 10
-24.47435
 20
-16.2242
 10
-23.5149
 20
-16.19155
 10
-22.55495
 20
-16.199749999999998
 10
-21.59625
 20
-16.24865
 10
-20.6403
 20
-16.33715
 10
-19.6887
 20
-16.46315
 10
-18.742549999999998
 20
-16.6239
 10
-17.80285
 20
-16.81605
 10
-16.8702
 20
-17.035600000000002
 10
-15.945
 20
-17.27835
 10
-15.02745
 20
-17.53975
 10
-14.117650000000001
 20
-17.8152
 10
-13.215399999999999
 20
-18.099999999999998
 10
-12.32065
 20
-18.38965
 10
-11.433200000000001
 20
-18.67965
 10
-10.55275
 20
-18.965799999999998
 10
-9.6791
 20
-19.2441
 10
-8.812050000000001
 20
-19.510949999999998
 10
-7.9512
 20
-19.76305
 10
-7.0962499999999995
 20
-19.99745
 10
-6.24685
 20
-20.21155
 10
-5.4026
 20
-20.40315
 10
-4.563
 20
-20.5705
 10
-3.72745
 20
-20.712
 10
-2.8954
 20
-20.826549999999997
 10
-2.0661
 20
-20.9132
 10
-1.23885
 20
-20.9713
 10
-0.41279999999999994
 20
-21.00045
 10
0.41279999999999994
 20
-21.00045
 10
1.23885
 20
-20.9713
 10
2.0661
 20
-20.9132
 10
2.8954
 20
-20.826549999999997
 10
3.72745
 20
-20.712
 10
4.563
 20
-20.5705
 10
5.4026
 20
-20.40315
 10
6.24685
 20
-20.21155
 10
7.0962499999999995
 20
-19.99745
 10
7.9512
 20
-19.76305
 10
8.812050000000001
 20
-19.510949999999998
 10
9.6791
 20
-19.2441
 10
10.55275
 20
-18.965799999999998
 10
11.433200000000001
 20
-18.67965
 10
12.32065
 20
-18.38965
 10
13.215399999999999
 20
-18.099999999999998
 10
14.117650000000001
 20
-17.8152
 10
15.02745
 20
-17.53975
 10
15.945
 20
-17.27835
 10
16.8702
 20
-17.035600000000002
 10
17.80285
 20
-16.81605
 10
18.742549999999998
 20
-16.6239
 10
19.6887
 20
-16.46315
 10
20.6403
 20
-16.33715
 10
21.59625
 20
-16.24865
 10
22.55495
 20
-16.199749999999998
 10
23.5149
 20
-16.19155
 10
24.47435
 20
-16.2242
 10
25.43155
 20
-16.297
 10
26.38505
 20
-16.4082
 10
27.333550000000002
 20
-16.555400000000002
 10
28.2759
 20
-16.7354
 10
29.21145
 20
-16.94445
 10
30.1397
 20
-17.17845
 10
31.0603
 20
-17.4329
 10
31.973249999999997
 20
-17.70325
 10
32.8785
 20
-17.984849999999998
 10
33.7762
 20
-18.2731
 10
34.666599999999995
 20
-18.563499999999998
 10
35.5498
 20
-18.85165
 10
36.42615
 20
-19.1336
 10
37.29585
 20
-19.40545
 10
38.15915
 20
-19.66385
 10
39.016400000000004
 20
-19.90565
 10
39.867999999999995
 20
-20.1282
 10
40.71425
 20
-20.3291
 10
41.55565
 20
-20.50635
 10
42.39275
 20
-20.6584
 10
43.226150000000004
 20
-20.7839
 10
44.056450000000005
 20
-20.881800000000002
 10
44.88445
 20
-20.951449999999998
 10
45.3859
 20
-20.9762
 10
45.67725
 20
-20.336850000000002
 10
46.02525
 20
-19.53655
 10
46.3592
 20
-18.73035
 10
46.678999999999995
 20
-17.918400000000002
 10
46.98465
 20
-17.101
 10
47.27595
 20
-16.2784
 10
47.55285
 20
-15.450849999999999
 10
47.81525
 20
-14.6186
 10
48.0631
 20
-13.78185
  0
LWPOLYLINE
  5
33
330
17
100
AcDbEntity
  8
LOGO
100
AcDbPolyline
 90
97
 70
1
 10
-49.2404
 20
-8.6824
 10
-49.152499999999996
 20
-9.15655
 10
-48.51605
 20
-8.87315
 10
-47.642050000000005
 20
-8.50035
 10
-46.76805
 20
-8.175
 10
-45.89405
 20
-7.896450000000001
 10
-45.02005
 20
-7.663150000000001
 10
-44.146049999999995
 20
-7.47365
 10
-43.27205
 20
-7.3263
 10
-42.39805
 20
-7.21955
 10
-41.52405
 20
-7.15175
 10
-40.65005
 20
-7.12125
 10
-39.776050000000005
 20
-7.1263499999999995
 10
-38.90205
 20
-7.1654
 10
-38.02805
 20
-7.23665
 10
-37.15405
 20
-7.33835
 10
-36.2801
 20
-7.46865
 10
-35.4061
 20
-7.625750000000001
 10
-34.5321
 20
-7.807849999999999
 10
-33.658100000000005
 20
-8.013
 10
-32.7841
 20
-8.2394
 10
-31.910100000000003
 20
-8.485
 10
-31.0361
 20
-8.74795
 10
-30.1621
 20
-9.0262
 10
-29.2881
 20
-9.31775
 10
-28.414099999999998
 20
-9.62055
 10
-27.540100000000002
 20
-9.932549999999999
 10
-26.666099999999997
 20
-10.25165
 10
-25.7921
 20
-10.575700000000001
 10
-25.09105
 20
-10.83785
 10
-25.07935
 20
-10.748050000000001
 10
-24.94675
 20
-9.93805
 10
-24.788
 20
-9.132750000000001
 10
-24.60325
 20
-8.33305
 10
-24.3927
 20
-7.539750000000001
 10
-24.1566
 20
-6.75365
 10
-23.8952
 20
-5.97565
 10
-23.6087
 20
-5.20645
 10
-23.29745
 20
-4.447
 10
-22.9618
 20
-3.698
 10
-22.74745
 20
-3.2583
 10
-22.76175
 20
-3.2483
 10
-23.5004
 20
-2.73225
 10
-24.23715
 20
-2.2188
 10
-24.972649999999998
 20
-1.7087499999999998
 10
-25.70735
 20
-1.2026999999999999
 10
-26.44185
 20
-0.70135
 10
-27.1766
 20
-0.2052
 10
-27.91205
 20
0.28515
 10
-28.648699999999998
 20
0.76925
 10
-29.3869
 20
1.2466
 10
-30.127150000000004
 20
1.7167499999999998
 10
-30.86975
 20
2.1794000000000002
 10
-31.61505
 20
2.63415
 10
-32.36345
 20
3.08065
 10
-33.11515
 20
3.5187000000000004
 10
-33.8705
 20
3.948
 10
-34.6297
 20
4.3683
 10
-35.393049999999995
 20
4.7795
 10
-36.1607
 20
5.1814
 10
-36.9328
 20
5.5739
 10
-37.70955
 20
5.9569
 10
-38.4911
 20
6.330299999999999
 10
-39.277499999999996
 20
6.6941500000000005
 10
-40.0689
 20
7.048400000000001
 10
-40.865249999999996
 20
7.3931
 10
-41.66665
 20
7.728300000000001
 10
-42.47315
 20
8.0541
 10
-43.2847
 20
8.37065
 10
-44.10125
 20
8.6781
 10
-44.92275
 20
8.97665
 10
-45.7492
 20
9.26655
 10
-46.58045
 20
9.54805
 10
-47.41635
 20
9.821399999999999
 10
-48.2569
 20
10.087
 10
-48.928399999999996
 20
10.29225
 10
-49.08135
 20
9.54045
 10
-49.2404
 20
8.6824
 10
-49.3844
 20
7.8217
 10
-49.513400000000004
 20
6.95865
 10
-49.627300000000005
 20
6.093450000000001
 10
-49.7261
 20
5.2264
 10
-49.80975
 20
4.3578
 10
-49.8782
 20
3.4878
 10
-49.9315
 20
2.6168
 10
-49.96955
 20
1.74495
 10
-49.992399999999996
 20
0.8725999999999999
 10
-50.0
 20
0.0
 10
-49.992399999999996
 20
-0.8725999999999999
 10
-49.96955
 20
-1.74495
 10
-49.9315
 20
-2.6168
 10
-49.8782
 20
-3.4878
 10
-49.80975
 20
-4.3578
 10
-49.7261
 20
-5.2264
 10
-49.627300000000005
 20
-6.093450000000001
 10
-49.513400000000004
 20
-6.95865
 10
-49.3844
 20
-7.8217
  0
LWPOLYLINE
  5
34
330
17
100
AcDbEntity
  8
LOGO
100
AcDbPolyline
 90
110
 70
1
 10
-37.9777
 20
31.334649999999996
 10
-38.51565
 20
31.88045
 10
-38.8573
 20
31.466
 10
-39.40055
 20
30.78305
 10
-39.9318
 20
30.09075
 10
-40.45085
 20
29.38925
 10
-40.9576
 20
28.6788
 10
-41.4519
 20
27.959650000000003
 10
-41.933550000000004
 20
27.231949999999998
 10
-42.4024
 20
26.49595
 10
-42.85835
 20
25.7519
 10
-43.30125
 20
25.0
 10
-43.730999999999995
 20
24.2405
 10
-44.1474
 20
23.4736
 10
-44.55035
 20
22.6995
 10
-44.9397
 20
21.91855
 10
-45.3154
 20
21.1309
 10
-45.67725
 20
20.336850000000002
 10
-46.02525
 20
19.53655
 10
-46.3592
 20
18.73035
 10
-46.678999999999995
 20
17.918400000000002
 10
-46.98465
 20
17.101
 10
-47.27595
 20
16.2784
 10
-47.55285
 20
15.450849999999999
 10
-47.81525
 20
14.6186
 10
-47.893
 20
14.3561
 10
-47.87165
 20
14.34955
 10
-46.99295
 20
14.06975
 10
-46.11695
 20
13.78165
 10
-45.24395
 20
13.4848
 10
-44.37435
 20
13.178899999999999
 10
-43.50835
 20
12.86375
 10
-42.6464
 20
12.538949999999998
 10
-41.78865
 20
12.20445
 10
-40.93545
 20
11.86
 10
-40.087
 20
11.505550000000001
 10
-39.2435
 20
11.14105
 10
-38.40515
 20
10.766399999999999
 10
-37.57215
 20
10.3816
 10
-36.7446
 20
9.9868
 10
-35.922599999999996
 20
9.58205
 10
-35.10625
 20
9.1675
 10
-34.2956
 20
8.7433
 10
-33.49065
 20
8.30965
 10
-32.6914
 20
7.86685
 10
-31.89785
 20
7.41515
 10
-31.10985
 20
6.9549
 10
-30.3273
 20
6.4864500000000005
 10
-29.55015
 20
6.0102
 10
-28.778150000000004
 20
5.5266
 10
-28.0111
 20
5.0361
 10
-27.2488
 20
4.5392
 10
-26.491
 20
4.036449999999999
 10
-25.73735
 20
3.5284000000000004
 10
-24.98755
 20
3.01565
 10
-24.2413
 20
2.4989
 10
-23.498150000000003
 20
1.97875
 10
-22.7578
 20
1.4559499999999999
 10
-22.01975
 20
0.9312499999999999
 10
-21.2836
 20
0.40540000000000004
 10
-20.79445
 20
0.05505
 10
-20.4564
 20
0.5329999999999999
 10
-19.961000000000002
 20
1.1874
 10
-19.4447
 20
1.82545
 10
-18.908
 20
2.44645
 10
-18.35145
 20
3.0497
 10
-17.7757
 20
3.6346499999999997
 10
-17.1813
 20
4.2007
 10
-16.5689
 20
4.7471499999999995
 10
-15.9391
 20
5.273499999999999
 10
-15.2926
 20
5.7792
 10
-15.258849999999999
 20
5.80385
 10
-15.5835
 20
6.22285
 10
-16.1274
 20
6.9202
 10
-16.673550000000002
 20
7.61555
 10
-17.222
 20
8.30885
 10
-17.772850000000002
 20
9.00005
 10
-18.32615
 20
9.68915
 10
-18.881899999999998
 20
10.376100000000001
 10
-19.44025
 20
11.0609
 10
-20.0012
 20
11.7435
 10
-20.56475
 20
12.4239
 10
-21.131
 20
13.1021
 10
-21.6999
 20
13.778099999999998
 10
-22.2715
 20
14.45185
 10
-22.845850000000002
 20
15.1234
 10
-23.4229
 20
15.79275
 10
-24.002599999999997
 20
16.45995
 10
-24.58505
 20
17.125
 10
-25.170199999999998
 20
17.78795
 10
-25.75795
 20
18.44875
 10
-26.348349999999996
 20
19.10755
 10
-26.941349999999996
 20
19.76435
 10
-27.536899999999996
 20
20.4192
 10
-28.134900000000002
 20
21.07215
 10
-28.735349999999997
 20
21.723300000000002
 10
-29.338199999999997
 20
22.37265
 10
-29.943350000000002
 20
23.02035
 10
-30.550749999999997
 20
23.6665
 10
-31.16025
 20
24.3111
 10
-31.77185
 20
24.9543
 10
-32.3854
 20
25.596200000000003
 10
-33.00085
 20
26.236900000000002
 10
-33.61805
 20
26.876499999999997
 10
-34.2369
 20
27.51515
 10
-34.8573
 20
28.153
 10
-35.4791
 20
28.790149999999997
 10
-36.10215
 20
29.4267
 10
-36.7264
 20
30.0629
 10
-37.351600000000005
 20
30.6988
  0
LWPOLYLINE
  5
35
330
17
100
AcDbEntity
  8
LOGO
100
AcDbPolyline
 90
121
 70
1
 10
-16.45445
 20
46.9097
 10
-16.5473
 20
47.180699999999995
 10
-17.101
 20
46.98465
 10
-17.918400000000002
 20
46.678999999999995
 10
-18.73035
 20
46.3592
 10
-19.53655
 20
46.02525
 10
-20.336850000000002
 20
45.67725
 10
-21.1309
 20
45.3154
 10
-21.91855
 20
44.9397
 10
-22.6995
 20
44.55035
 10
-23.4736
 20
44.1474
 10
-24.2405
 20
43.730999999999995
 10
-25.0
 20
43.30125
 10
-25.7519
 20
42.85835
 10
-26.49595
 20
42.4024
 10
-27.231949999999998
 20
41.933550000000004
 10
-27.959650000000003
 20
41.4519
 10
-28.6788
 20
40.9576
 10
-29.38925
 20
40.45085
 10
-30.09075
 20
39.9318
 10
-30.78305
 20
39.40055
 10
-31.466
 20
38.8573
 10
-32.1394
 20
38.3022
 10
-32.802949999999996
 20
37.7355
 10
-33.45655
 20
37.15725
 10
-34.0999
 20
36.567699999999995
 10
-34.7329
 20
35.967
 10
-35.29885
 20
35.410849999999996
 10
-35.16495
 20
35.267199999999995
 10
-34.5551
 20
34.61265
 10
-33.94515
 20
33.95725
 10
-33.33525
 20
33.30095
 10
-32.72555
 20
32.64365
 10
-32.11635
 20
31.98515
 10
-31.50775
 20
31.3254
 10
-30.9
 20
30.6643
 10
-30.2932
 20
30.001749999999998
 10
-29.6875
 20
29.337699999999998
 10
-29.083150000000003
 20
28.671950000000002
 10
-28.4802
 20
28.004550000000002
 10
-27.87885
 20
27.3354
 10
-27.279249999999998
 20
26.6644
 10
-26.681500000000003
 20
25.991550000000004
 10
-26.085649999999998
 20
25.316699999999997
 10
-25.491950000000003
 20
24.6399
 10
-24.90045
 20
23.96105
 10
-24.3112
 20
23.28015
 10
-23.72435
 20
22.5972
 10
-23.14
 20
21.912100000000002
 10
-22.558149999999998
 20
21.22485
 10
-21.97895
 20
20.53545
 10
-21.40245
 20
19.84395
 10
-20.82865
 20
19.15025
 10
-20.257649999999998
 20
18.45445
 10
-19.68945
 20
17.7565
 10
-19.12415
 20
17.0564
 10
-18.561700000000002
 20
16.3542
 10
-18.00215
 20
15.64995
 10
-17.4455
 20
14.94365
 10
-16.89175
 20
14.235349999999999
 10
-16.3409
 20
13.52505
 10
-15.792900000000001
 20
12.812850000000001
 10
-15.2478
 20
12.098749999999999
 10
-14.705499999999999
 20
11.38285
 10
-14.166
 20
10.6652
 10
-13.629199999999999
 20
9.94585
 10
-13.09515
 20
9.22485
 10
-12.56365
 20
8.5023
 10
-12.08235
 20
7.843450000000001
 10
-11.8338
 20
7.9799
 10
-11.1018
 20
8.35125
 10
-10.3582
 20
8.698699999999999
 10
-9.60375
 20
9.021899999999999
 10
-8.83925
 20
9.320549999999999
 10
-8.06545
 20
9.59425
 10
-7.283199999999999
 20
9.84275
 10
-6.4933000000000005
 20
10.06585
 10
-6.291149999999999
 20
10.1159
 10
-6.30555
 20
10.175099999999999
 10
-6.51615
 20
11.03845
 10
-6.72775
 20
11.9017
 10
-6.940300000000001
 20
12.764700000000001
 10
-7.153700000000001
 20
13.62755
 10
-7.367999999999999
 20
14.4902
 10
-7.5832
 20
15.35265
 10
-7.799200000000001
 20
16.21495
 10
-8.016
 20
17.07695
 10
-8.233699999999999
 20
17.9388
 10
-8.4522
 20
18.800349999999998
 10
-8.67155
 20
19.6617
 10
-8.8917
 20
20.522750000000002
 10
-9.1128
 20
21.383499999999998
 10
-9.33475
 20
22.2439
 10
-9.557649999999999
 20
23.10405
 10
-9.7815
 20
23.9638
 10
-10.00635
 20
24.82315
 10
-10.23225
 20
25.682100000000002
 10
-10.45925
 20
26.540599999999998
 10
-10.6874
 20
27.398650000000004
 10
-10.91675
 20
28.256249999999998
 10
-11.147400000000001
 20
29.11325
 10
-11.37935
 20
29.9697
 10
-11.61275
 20
30.82555
 10
-11.84765
 20
31.680750000000003
 10
-12.084100000000001
 20
32.5353
 10
-12.3223
 20
33.3891
 10
-12.5622
 20
34.2421
 10
-12.80405
 20
35.09435
 10
-13.0478
 20
35.9457
 10
-13.2937
 20
36.79615
 10
-13.5418
 20
37.6456
 10
-13.792250000000001
 20
38.49405
 10
-14.0451
 20
39.34145
 10
-14.300550000000001
 20
40.18775
 10
-14.558750000000002
 20
41.0328
 10
-14.819799999999999
 20
41.87665
 10
-15.083849999999998
 20
42.71915
 10
-15.351049999999999
 20
43.560300000000005
 10
-15.621550000000001
 20
44.4
 10
-15.895500000000002
 20
45.23815
 10
-16.1731
 20
46.074749999999995
  0
LWPOLYLINE
  5
36
330
17
100
AcDbEntity
  8
LOGO
100
AcDbPolyline
 90
126
 70
1
 10
11.6361
 20
48.4496
 10
11.68565
 20
48.613299999999995
 10
11.24755
 20
48.7185
 10
10.3956
 20
48.9074
 10
9.54045
 20
49.08135
 10
8.6824
 20
49.2404
 10
7.8217
 20
49.3844
 10
6.95865
 20
49.513400000000004
 10
6.093450000000001
 20
49.627300000000005
 10
5.2264
 20
49.7261
 10
4.3578
 20
49.80975
 10
3.4878
 20
49.8782
 10
2.6168
 20
49.9315
 10
1.74495
 20
49.96955
 10
0.8725999999999999
 20
49.992399999999996
 10
0.0
 20
50.0
 10
-0.8725999999999999
 20
49.992399999999996
 10
-1.74495
 20
49.96955
 10
-2.6168
 20
49.9315
 10
-3.4878
 20
49.8782
 10
-4.3578
 20
49.80975
 10
-5.2264
 20
49.7261
 10
-6.093450000000001
 20
49.627300000000005
 10
-6.95865
 20
49.513400000000004
 10
-7.8217
 20
49.3844
 10
-8.6824
 20
49.2404
 10
-9.54045
 20
49.08135
 10
-10.3956
 20
48.9074
 10
-11.24755
 20
48.7185
 10
-11.68565
 20
48.613299999999995
 10
-11.6361
 20
48.4496
 10
-11.37795
 20
47.582
 10
-11.1241
 20
46.71405
 10
-10.8744
 20
45.8457
 10
-10.6286
 20
44.97705
 10
-10.38655
 20
44.1081
 10
-10.14805
 20
43.2389
 10
-9.912899999999999
 20
42.3694
 10
-9.681
 20
41.4997
 10
-9.45215
 20
40.629799999999996
 10
-9.2262
 20
39.759699999999995
 10
-9.00295
 20
38.88945
 10
-8.78235
 20
38.01905
 10
-8.5642
 20
37.14845
 10
-8.3484
 20
36.27775
 10
-8.1348
 20
35.406949999999995
 10
-7.9232499999999995
 20
34.536
 10
-7.713699999999999
 20
33.66495
 10
-7.50605
 20
32.7938
 10
-7.3001
 20
31.92255
 10
-7.0958
 20
31.051250000000003
 10
-6.8931000000000004
 20
30.179850000000002
 10
-6.6918500000000005
 20
29.30835
 10
-6.492050000000001
 20
28.43675
 10
-6.293500000000001
 20
27.565099999999997
 10
-6.09625
 20
26.69335
 10
-5.9002
 20
25.82155
 10
-5.7052499999999995
 20
24.9496
 10
-5.51135
 20
24.0776
 10
-5.31855
 20
23.2055
 10
-5.1267
 20
22.3333
 10
-4.93575
 20
21.46095
 10
-4.7458
 20
20.5885
 10
-4.5567
 20
19.71595
 10
-4.3685
 20
18.84325
 10
-4.181150000000001
 20
17.9704
 10
-3.9946
 20
17.0974
 10
-3.80895
 20
16.22425
 10
-3.62415
 20
15.350900000000001
 10
-3.4402500000000003
 20
14.47735
 10
-3.25715
 20
13.60365
 10
-3.075
 20
12.729650000000001
 10
-2.8937500000000003
 20
11.85545
 10
-2.71345
 20
10.981
 10
-2.6698
 20
10.76805
 10
-2.45855
 20
10.7921
 10
-1.6404999999999998
 20
10.85845
 10
-0.82065
 20
10.898299999999999
 10
0.0
 20
10.9116
 10
0.82065
 20
10.898299999999999
 10
1.6404999999999998
 20
10.85845
 10
2.45855
 20
10.7921
 10
2.6698
 20
10.76805
 10
2.71345
 20
10.981
 10
2.8937500000000003
 20
11.85545
 10
3.075
 20
12.729650000000001
 10
3.25715
 20
13.60365
 10
3.4402500000000003
 20
14.47735
 10
3.62415
 20
15.350900000000001
 10
3.80895
 20
16.22425
 10
3.9946
 20
17.0974
 10
4.181150000000001
 20
17.9704
 10
4.3685
 20
18.84325
 10
4.5567
 20
19.71595
 10
4.7458
 20
20.5885
 10
4.93575
 20
21.46095
 10
5.1267
 20
22.3333
 10
5.31855
 20
23.2055
 10
5.51135
 20
24.0776
 10
5.7052499999999995
 20
24.9496
 10
5.9002
 20
25.82155
 10
6.09625
 20
26.69335
 10
6.293500000000001
 20
27.565099999999997
 10
6.492050000000001
 20
28.43675
 10
6.6918500000000005
 20
29.30835
 10
6.8931000000000004
 20
30.179850000000002
 10
7.0958
 20
31.051250000000003
 10
7.3001
 20
31.92255
 10
7.50605
 20
32.7938
 10
7.713699999999999
 20
33.66495
 10
7.9232499999999995
 20
34.536
 10
8.1348
 20
35.406949999999995
 10
8.3484
 20
36.27775
 10
8.5642
 20
37.14845
 10
8.78235
 20
38.01905
 10
9.00295
 20
38.88945
 10
9.2262
 20
39.759699999999995
 10
9.45215
 20
40.629799999999996
 10
9.681
 20
41.4997
 10
9.912899999999999
 20
42.3694
 10
10.14805
 20
43.2389
 10
10.38655
 20
44.1081
 10
10.6286
 20
44.97705
 10
10.8744
 20
45.8457
 10
11.1241
 20
46.71405
 10
11.37795
 20
47.582
  0
LWPOLYLINE
  5
37
330
17
100
AcDbEntity
  8
LOGO
100
AcDbPolyline
 90
121
 70
1
 10
35.16495
 20
35.267199999999995
 10
35.29885
 20
35.410849999999996
 10
34.7329
 20
35.967
 10
34.0999
 20
36.567699999999995
 10
33.45655
 20
37.15725
 10
32.802949999999996
 20
37.7355
 10
32.1394
 20
38.3022
 10
31.466
 20
38.8573
 10
30.78305
 20
39.40055
 10
30.09075
 20
39.9318
 10
29.38925
 20
40.45085
 10
28.6788
 20
40.9576
 10
27.959650000000003
 20
41.4519
 10
27.231949999999998
 20
41.933550000000004
 10
26.49595
 20
42.4024
 10
25.7519
 20
42.85835
 10
25.0
 20
43.30125
 10
24.2405
 20
43.730999999999995
 10
23.4736
 20
44.1474
 10
22.6995
 20
44.55035
 10
21.91855
 20
44.9397
 10
21.1309
 20
45.3154
 10
20.336850000000002
 20
45.67725
 10
19.53655
 20
46.02525
 10
18.73035
 20
46.3592
 10
17.918400000000002
 20
46.678999999999995
 10
17.101
 20
46.98465
 10
16.5473
 20
47.180699999999995
 10
16.45445
 20
46.9097
 10
16.1731
 20
46.074749999999995
 10
15.895500000000002
 20
45.23815
 10
15.621550000000001
 20
44.4
 10
15.351049999999999
 20
43.560300000000005
 10
15.083849999999998
 20
42.71915
 10
14.819799999999999
 20
41.87665
 10
14.558750000000002
 20
41.0328
 10
14.300550000000001
 20
40.18775
 10
14.0451
 20
39.34145
 10
13.792250000000001
 20
38.49405
 10
13.5418
 20
37.6456
 10
13.2937
 20
36.79615
 10
13.0478
 20
35.9457
 10
12.80405
 20
35.09435
 10
12.5622
 20
34.2421
 10
12.3223
 20
33.3891
 10
12.084100000000001
 20
32.5353
 10
11.84765
 20
31.680750000000003
 10
11.61275
 20
30.82555
 10
11.37935
 20
29.9697
 10
11.147400000000001
 20
29.11325
 10
10.91675
 20
28.256249999999998
 10
10.6874
 20
27.398650000000004
 10
10.45925
 20
26.540599999999998
 10
10.23225
 20
25.682100000000002
 10
10.00635
 20
24.82315
 10
9.7815
 20
23.9638
 10
9.557649999999999
 20
23.10405
 10
9.33475
 20
22.2439
 10
9.1128
 20
21.383499999999998
 10
8.8917
 20
20.522750000000002
 10
8.67155
 20
19.6617
 10
8.4522
 20
18.800349999999998
 10
8.233699999999999
 20
17.9388
 10
8.016
 20
17.07695
 10
7.799200000000001
 20
16.21495
 10
7.5832
 20
15.35265
 10
7.367999999999999
 20
14.4902
 10
7.153700000000001
 20
13.62755
 10
6.940300000000001
 20
12.764700000000001
 10
6.72775
 20
11.9017
 10
6.51615
 20
11.03845
 10
6.30555
 20
10.175099999999999
 10
6.291149999999999
 20
10.1159
 10
6.4933000000000005
 20
10.06585
 10
7.283199999999999
 20
9.84275
 10
8.06545
 20
9.59425
 10
8.83925
 20
9.320549999999999
 10
9.60375
 20
9.021899999999999
 10
10.3582
 20
8.698699999999999
 10
11.1018
 20
8.35125
 10
11.8338
 20
7.9799
 10
12.08235
 20
7.843450000000001
 10
12.56365
 20
8.5023
 10
13.09515
 20
9.22485
 10
13.629199999999999
 20
9.94585
 10
14.166
 20
10.6652
 10
14.705499999999999
 20
11.38285
 10
15.2478
 20
12.098749999999999
 10
15.792900000000001
 20
12.812850000000001
 10
16.3409
 20
13.52505
 10
16.89175
 20
14.235349999999999
 10
17.4455
 20
14.94365
 10
18.00215
 20
15.64995
 10
18.561700000000002
 20
16.3542
 10
19.12415
 20
17.0564
 10
19.68945
 20
17.7565
 10
20.257649999999998
 20
18.45445
 10
20.82865
 20
19.15025
 10
21.40245
 20
19.84395
 10
21.97895
 20
20.53545
 10
22.558149999999998
 20
21.22485
 10
23.14
 20
21.912100000000002
 10
23.72435
 20
22.5972
 10
24.3112
 20
23.28015
 10
24.90045
 20
23.96105
 10
25.491950000000003
 20
24.6399
 10
26.085649999999998
 20
25.316699999999997
 10
26.681500000000003
 20
25.991550000000004
 10
27.279249999999998
 20
26.6644
 10
27.87885
 20
27.3354
 10
28.4802
 20
28.004550000000002
 10
29.083150000000003
 20
28.671950000000002
 10
29.6875
 20
29.337699999999998
 10
30.2932
 20
30.001749999999998
 10
30.9
 20
30.6643
 10
31.50775
 20
31.3254
 10
32.11635
 20
31.98515
 10
32.72555
 20
32.64365
 10
33.33525
 20
33.30095
 10
33.94515
 20
33.95725
 10
34.5551
 20
34.61265
  0
LWPOLYLINE
  5
38
330
17
100
AcDbEntity
  8
LOGO
100
AcDbPolyline
 90
110
 70
1
 10
47.87165
 20
14.34955
 10
47.893
 20
14.3561
 10
47.81525
 20
14.6186
 10
47.55285
 20
15.450849999999999
 10
47.27595
 20
16.2784
 10
46.98465
 20
17.101
 10
46.678999999999995
 20
17.918400000000002
 10
46.3592
 20
18.73035
 10
46.02525
 20
19.53655
 10
45.67725
 20
20.336850000000002
 10
45.3154
 20
21.1309
 10
44.9397
 20
21.91855
 10
44.55035
 20
22.6995
 10
44.1474
 20
23.4736
 10
43.730999999999995
 20
24.2405
 10
43.30125
 20
25.0
 10
42.85835
 20
25.7519
 10
42.4024
 20
26.49595
 10
41.933550000000004
 20
27.231949999999998
 10
41.4519
 20
27.959650000000003
 10
40.9576
 20
28.6788
 10
40.45085
 20
29.38925
 10
39.9318
 20
30.09075
 10
39.40055
 20
30.78305
 10
38.8573
 20
31.466
 10
38.51565
 20
31.88045
 10
37.9777
 20
31.334649999999996
 10
37.351600000000005
 20
30.6988
 10
36.7264
 20
30.0629
 10
36.10215
 20
29.4267
 10
35.4791
 20
28.790149999999997
 10
34.8573
 20
28.153
 10
34.2369
 20
27.51515
 10
33.61805
 20
26.876499999999997
 10
33.00085
 20
26.236900000000002
 10
32.3854
 20
25.596200000000003
 10
31.77185
 20
24.9543
 10
31.16025
 20
24.3111
 10
30.550749999999997
 20
23.6665
 10
29.943350000000002
 20
23.02035
 10
29.338199999999997
 20
22.37265
 10
28.735349999999997
 20
21.723300000000002
 10
28.134900000000002
 20
21.07215
 10
27.536899999999996
 20
20.4192
 10
26.941349999999996
 20
19.76435
 10
26.348349999999996
 20
19.10755
 10
25.75795
 20
18.44875
 10
25.170199999999998
 20
17.78795
 10
24.58505
 20
17.125
 10
24.002599999999997
 20
16.45995
 10
23.4229
 20
15.79275
 10
22.845850000000002
 20
15.1234
 10
22.2715
 20
14.45185
 10
21.6999
 20
13.778099999999998
 10
21.131
 20
13.1021
 10
20.56475
 20
12.4239
 10
20.0012
 20
11.7435
 10
19.44025
 20
11.0609
 10
18.881899999999998
 20
10.376100000000001
 10
18.32615
 20
9.68915
 10
17.772850000000002
 20
9.00005
 10
17.222
 20
8.30885
 10
16.673550000000002
 20
7.61555
 10
16.1274
 20
6.9202
 10
15.5835
 20
6.22285
 10
15.258849999999999
 20
5.80385
 10
15.2926
 20
5.7792
 10
15.9391
 20
5.273499999999999
 10
16.5689
 20
4.7471499999999995
 10
17.1813
 20
4.2007
 10
17.7757
 20
3.6346499999999997
 10
18.35145
 20
3.0497
 10
18.908
 20
2.44645
 10
19.4447
 20
1.82545
 10
19.961000000000002
 20
1.1874
 10
20.4564
 20
0.5329999999999999
 10
20.79445
 20
0.05505
 10
21.2836
 20
0.40540000000000004
 10
22.01975
 20
0.9312499999999999
 10
22.7578
 20
1.4559499999999999
 10
23.498150000000003
 20
1.97875
 10
24.2413
 20
2.4989
 10
24.98755
 20
3.01565
 10
25.73735
 20
3.5284000000000004
 10
26.491
 20
4.036449999999999
 10
27.2488
 20
4.5392
 10
28.0111
 20
5.0361
 10
28.778150000000004
 20
5.5266
 10
29.55015
 20
6.0102
 10
30.3273
 20
6.4864500000000005
 10
31.10985
 20
6.9549
 10
31.89785
 20
7.41515
 10
32.6914
 20
7.86685
 10
33.49065
 20
8.30965
 10
34.2956
 20
8.7433
 10
35.10625
 20
9.1675
 10
35.922599999999996
 20
9.58205
 10
36.7446
 20
9.9868
 10
37.57215
 20
10.3816
 10
38.40515
 20
10.766399999999999
 10
39.2435
 20
11.14105
 10
40.087
 20
11.505550000000001
 10
40.93545
 20
11.86
 10
41.78865
 20
12.20445
 10
42.6464
 20
12.538949999999998
 10
43.50835
 20
12.86375
 10
44.37435
 20
13.178899999999999
 10
45.24395
 20
13.4848
 10
46.11695
 20
13.78165
 10
46.99295
 20
14.06975
  0
LWPOLYLINE
  5
39
330
17
100
AcDbEntity
  8
LOGO
100
AcDbPolyline
 90
91
 70
1
 10
22.3299
 20
-11.383799999999999
 10
22.26285
 20
-10.8354
 10
22.15045
 20
-10.11215
 10
22.0146
 20
-9.392949999999999
 10
21.85535
 20
-8.67855
 10
21.67295
 20
-7.9697000000000005
 10
21.46755
 20
-7.2672
 10
21.2394
 20
-6.57175
 10
20.988699999999998
 20
-5.884049999999999
 10
20.71575
 20
-5.20495
 10
20.420849999999998
 20
-4.53505
 10
20.1043
 20
-3.87515
 10
19.7664
 20
-3.2258500000000003
 10
19.40755
 20
-2.58795
 10
19.02815
 20
-1.9620499999999998
 10
18.62855
 20
-1.3488
 10
18.2092
 20
-0.74895
 10
17.7705
 20
-0.163
 10
17.313000000000002
 20
0.4083
 10
16.83715
 20
0.9643999999999999
 10
16.3434
 20
1.50475
 10
15.83235
 20
2.0286999999999997
 10
15.304499999999999
 20
2.53575
 10
14.7604
 20
3.02535
 10
14.2007
 20
3.49695
 10
13.6259
 20
3.9501
 10
13.03665
 20
4.38425
 10
12.4336
 20
4.79905
 10
11.81735
 20
5.19395
 10
11.18855
 20
5.5686
 10
10.54795
 20
5.92255
 10
9.896099999999999
 20
6.2555
 10
9.23375
 20
6.567
 10
8.56165
 20
6.856800000000001
 10
7.88045
 20
7.12455
 10
7.1909
 20
7.36995
 10
6.4937499999999995
 20
7.5927999999999995
 10
5.78965
 20
7.79285
 10
5.07945
 20
7.969850000000001
 10
4.363849999999999
 20
8.1236
 10
3.6436499999999996
 20
8.254
 10
2.91955
 20
8.3609
 10
2.1924
 20
8.44415
 10
1.4628999999999999
 20
8.50365
 10
0.73185
 20
8.5394
 10
0.0
 20
8.551300000000001
 10
-0.73185
 20
8.5394
 10
-1.4628999999999999
 20
8.50365
 10
-2.1924
 20
8.44415
 10
-2.91955
 20
8.3609
 10
-3.6436499999999996
 20
8.254
 10
-4.363849999999999
 20
8.1236
 10
-5.07945
 20
7.969850000000001
 10
-5.78965
 20
7.79285
 10
-6.4937499999999995
 20
7.5927999999999995
 10
-7.1909
 20
7.36995
 10
-7.88045
 20
7.12455
 10
-8.56165
 20
6.856800000000001
 10
-9.23375
 20
6.567
 10
-9.896099999999999
 20
6.2555
 10
-10.54795
 20
5.92255
 10
-11.18855
 20
5.5686
 10
-11.81735
 20
5.19395
 10
-12.4336
 20
4.79905
 10
-13.03665
 20
4.38425
 10
-13.6259
 20
3.9501
 10
-14.2007
 20
3.49695
 10
-14.7604
 20
3.02535
 10
-15.304499999999999
 20
2.53575
 10
-15.83235
 20
2.0286999999999997
 10
-16.3434
 20
1.50475
 10
-16.83715
 20
0.9643999999999999
 10
-17.313000000000002
 20
0.4083
 10
-17.7705
 20
-0.163
 10
-18.2092
 20
-0.74895
 10
-18.62855
 20
-1.3488
 10
-19.02815
 20
-1.9620499999999998
 10
-19.40755
 20
-2.58795
 10
-19.7664
 20
-3.2258500000000003
 10
-20.1043
 20
-3.87515
 10
-20.420849999999998
 20
-4.53505
 10
-20.71575
 20
-5.20495
 10
-20.988699999999998
 20
-5.884049999999999
 10
-21.2394
 20
-6.57175
 10
-21.46755
 20
-7.2672
 10
-21.67295
 20
-7.9697000000000005
 10
-21.85535
 20
-8.67855
 10
-22.0146
 20
-9.392949999999999
 10
-22.15045
 20
-10.11215
 10
-22.26285
 20
-10.8354
 10
-22.3299
 20
-11.383799999999999
  0
LWPOLYLINE
  5
3A
330
17
100
AcDbEntity
  8
LOGO
100
AcDbPolyline
 90
208
 70
1
 10
43.30125
 20
-25.0
 10
43.689
 20
-24.31465
 10
42.766749999999995
 20
-24.20595
 10
41.8271
 20
-24.0645
 10
40.891149999999996
 20
-23.89455
 10
39.9595
 20
-23.69835
 10
39.03275
 20
-23.4784
 10
38.111250000000005
 20
-23.237650000000002
 10
37.19545
 20
-22.9794
 10
36.28575
 20
-22.707150000000002
 10
35.38235
 20
-22.4248
 10
34.48565
 20
-22.13635
 10
33.5958
 20
-21.846
 10
32.71315
 20
-21.55815
 10
31.837799999999998
 20
-21.27705
 10
30.97005
 20
-21.00705
 10
30.1099
 20
-20.75225
 10
29.257450000000002
 20
-20.51655
 10
28.41265
 20
-20.3035
 10
27.575149999999997
 20
-20.116300000000003
 10
26.7445
 20
-19.957549999999998
 10
25.919900000000002
 20
-19.8295
 10
25.10035
 20
-19.733800000000002
 10
24.28455
 20
-19.67175
 10
23.4709
 20
-19.644000000000002
 10
22.6578
 20
-19.651
 10
21.8435
 20
-19.69255
 10
21.02635
 20
-19.768250000000002
 10
20.20495
 20
-19.87705
 10
19.378
 20
-20.01765
 10
18.5447
 20
-20.18815
 10
17.7043
 20
-20.3861
 10
16.8564
 20
-20.60865
 10
16.0009
 20
-20.85245
 10
15.1377
 20
-21.113799999999998
 10
14.26685
 20
-21.38875
 10
13.388549999999999
 20
-21.6731
 10
12.503
 20
-21.96245
 10
11.61035
 20
-22.25255
 10
10.71095
 20
-22.53905
 10
9.805
 20
-22.81785
 10
8.8928
 20
-23.0849
 10
7.9746999999999995
 20
-23.33655
 10
7.051
 20
-23.569300000000002
 10
6.122199999999999
 20
-23.7801
 10
5.1888
 20
-23.96605
 10
4.25125
 20
-24.1248
 10
3.3103000000000002
 20
-24.25425
 10
2.3665499999999997
 20
-24.35285
 10
1.42075
 20
-24.41925
 10
0.4737
 20
-24.452650000000002
 10
-0.4737
 20
-24.452650000000002
 10
-1.42075
 20
-24.41925
 10
-2.3665499999999997
 20
-24.35285
 10
-3.3103000000000002
 20
-24.25425
 10
-4.25125
 20
-24.1248
 10
-5.1888
 20
-23.96605
 10
-6.122199999999999
 20
-23.7801
 10
-7.051
 20
-23.569300000000002
 10
-7.9746999999999995
 20
-23.33655
 10
-8.8928
 20
-23.0849
 10
-9.805
 20
-22.81785
 10
-10.71095
 20
-22.53905
 10
-11.61035
 20
-22.25255
 10
-12.503
 20
-21.96245
 10
-13.388549999999999
 20
-21.6731
 10
-14.26685
 20
-21.38875
 10
-15.1377
 20
-21.113799999999998
 10
-16.0009
 20
-20.85245
 10
-16.8564
 20
-20.60865
 10
-17.7043
 20
-20.3861
 10
-18.5447
 20
-20.18815
 10
-19.378
 20
-20.01765
 10
-20.20495
 20
-19.87705
 10
-21.02635
 20
-19.768250000000002
 10
-21.8435
 20
-19.69255
 10
-22.6578
 20
-19.651
 10
-23.4709
 20
-19.644000000000002
 10
-24.28455
 20
-19.67175
 10
-25.10035
 20
-19.733800000000002
 10
-25.919900000000002
 20
-19.8295
 10
-26.7445
 20
-19.957549999999998
 10
-27.575149999999997
 20
-20.116300000000003
 10
-28.41265
 20
-20.3035
 10
-29.257450000000002
 20
-20.51655
 10
-30.1099
 20
-20.75225
 10
-30.97005
 20
-21.00705
 10
-31.837799999999998
 20
-21.27705
 10
-32.71315
 20
-21.55815
 10
-33.5958
 20
-21.846
 10
-34.48565
 20
-22.13635
 10
-35.38235
 20
-22.4248
 10
-36.28575
 20
-22.707150000000002
 10
-37.19545
 20
-22.9794
 10
-38.111250000000005
 20
-23.237650000000002
 10
-39.03275
 20
-23.4784
 10
-39.9595
 20
-23.69835
 10
-40.891149999999996
 20
-23.89455
 10
-41.8271
 20
-24.0645
 10
-42.766749999999995
 20
-24.20595
 10
-43.689
 20
-24.31465
 10
-43.30125
 20
-25.0
 10
-42.85835
 20
-25.7519
 10
-42.4024
 20
-26.49595
 10
-41.933550000000004
 20
-27.231949999999998
 10
-41.4519
 20
-27.959650000000003
 10
-40.9576
 20
-28.6788
 10
-40.45085
 20
-29.38925
 10
-39.9318
 20
-30.09075
 10
-39.40055
 20
-30.78305
 10
-39.36595
 20
-30.82655
 10
-38.8916
 20
-30.7349
 10
-38.04925
 20
-30.54655
 10
-37.203
 20
-30.33305
 10
-36.3521
 20
-30.09605
 10
-35.49575
 20
-29.8376
 10
-34.6333
 20
-29.56045
 10
-33.7641
 20
-29.26795
 10
-32.8874
 20
-28.9641
 10
-32.0027
 20
-28.65355
 10
-31.109399999999997
 20
-28.341549999999998
 10
-30.20695
 20
-28.0339
 10
-29.294949999999996
 20
-27.73665
 10
-28.373150000000003
 20
-27.45635
 10
-27.441349999999996
 20
-27.1994
 10
-26.4998
 20
-26.97225
 10
-25.549100000000003
 20
-26.780900000000003
 10
-24.59035
 20
-26.6308
 10
-23.62525
 20
-26.52645
 10
-22.656000000000002
 20
-26.471149999999998
 10
-21.68515
 20
-26.4666
 10
-20.7154
 20
-26.512999999999998
 10
-19.7494
 20
-26.60885
 10
-18.7894
 20
-26.7511
 10
-17.8372
 20
-26.9355
 10
-16.89395
 20
-27.156750000000002
 10
-15.9604
 20
-27.40885
 10
-15.0368
 20
-27.6855
 10
-14.123099999999999
 20
-27.9802
 10
-13.219
 20
-28.286450000000002
 10
-12.3241
 20
-28.59815
 10
-11.437899999999999
 20
-28.90935
 10
-10.559849999999999
 20
-29.2147
 10
-9.68935
 20
-29.50955
 10
-8.825750000000001
 20
-29.789700000000003
 10
-7.968400000000001
 20
-30.051699999999997
 10
-7.116550000000001
 20
-30.2927
 10
-6.26955
 20
-30.51045
 10
-5.42655
 20
-30.7034
 10
-4.58685
 20
-30.870199999999997
 10
-3.74975
 20
-31.01005
 10
-2.91465
 20
-31.122349999999997
 10
-2.081
 20
-31.2068
 10
-1.24825
 20
-31.2632
 10
-0.416
 20
-31.291449999999998
 10
0.416
 20
-31.291449999999998
 10
1.24825
 20
-31.2632
 10
2.081
 20
-31.2068
 10
2.91465
 20
-31.122349999999997
 10
3.74975
 20
-31.01005
 10
4.58685
 20
-30.870199999999997
 10
5.42655
 20
-30.7034
 10
6.26955
 20
-30.51045
 10
7.116550000000001
 20
-30.2927
 10
7.968400000000001
 20
-30.051699999999997
 10
8.825750000000001
 20
-29.789700000000003
 10
9.68935
 20
-29.50955
 10
10.559849999999999
 20
-29.2147
 10
11.437899999999999
 20
-28.90935
 10
12.3241
 20
-28.59815
 10
13.219
 20
-28.286450000000002
 10
14.123099999999999
 20
-27.9802
 10
15.0368
 20
-27.6855
 10
15.9604
 20
-27.40885
 10
16.89395
 20
-27.156750000000002
 10
17.8372
 20
-26.9355
 10
18.7894
 20
-26.7511
 10
19.7494
 20
-26.60885
 10
20.7154
 20
-26.512999999999998
 10
21.68515
 20
-26.4666
 10
22.656000000000002
 20
-26.471149999999998
 10
23.62525
 20
-26.52645
 10
24.59035
 20
-26.6308
 10
25.549100000000003
 20
-26.780900000000003
 10
26.4998
 20
-26.97225
 10
27.441349999999996
 20
-27.1994
 10
28.373150000000003
 20
-27.45635
 10
29.294949999999996
 20
-27.73665
 10
30.20695
 20
-28.0339
 10
31.109399999999997
 20
-28.341549999999998
 10
32.0027
 20
-28.65355
 10
32.8874
 20
-28.9641
 10
33.7641
 20
-29.26795
 10
34.6333
 20
-29.56045
 10
35.49575
 20
-29.8376
 10
36.3521
 20
-30.09605
 10
37.203
 20
-30.33305
 10
38.04925
 20
-30.54655
 10
38.8916
 20
-30.7349
 10
39.36595
 20
-30.82655
 10
39.40055
 20
-30.78305
 10
39.9318
 20
-30.09075
 10
40.45085
 20
-29.38925
 10
40.9576
 20
-28.6788
 10
41.4519
 20
-27.959650000000003
 10
41.933550000000004
 20
-27.231949999999998
 10
42.4024
 20
-26.49595
 10
42.85835
 20
-25.7519
  0
LWPOLYLINE
  5
3B
330
17
100
AcDbEntity
  8
LOGO
100
AcDbPolyline
 90
181
 70
1
 10
36.567699999999995
 20
-34.0999
 10
37.0236
 20
-33.602349999999994
 10
36.37855
 20
-33.4397
 10
35.456450000000004
 20
-33.18285
 10
34.5397
 20
-32.90625
 10
33.6291
 20
-32.61365
 10
32.72525
 20
-32.30955
 10
31.828899999999997
 20
-31.998900000000003
 10
30.94055
 20
-31.6871
 10
30.06085
 20
-31.379849999999998
 10
29.1902
 20
-31.082949999999997
 10
28.32915
 20
-30.802249999999997
 10
27.47795
 20
-30.543300000000002
 10
26.63665
 20
-30.311149999999998
 10
25.805149999999998
 20
-30.1104
 10
24.9828
 20
-29.94475
 10
24.1685
 20
-29.817149999999998
 10
23.36055
 20
-29.729699999999998
 10
22.55675
 20
-29.683749999999996
 10
21.754550000000002
 20
-29.68
 10
20.951249999999998
 20
-29.7185
 10
20.1442
 20
-29.79865
 10
19.33115
 20
-29.919249999999998
 10
18.510299999999997
 20
-30.078349999999997
 10
17.6805
 20
-30.273149999999998
 10
16.841
 20
-30.5
 10
15.991549999999998
 20
-30.754550000000002
 10
15.132200000000001
 20
-31.031799999999997
 10
14.26325
 20
-31.32625
 10
13.3851
 20
-31.6321
 10
12.498249999999999
 20
-31.943500000000004
 10
11.603299999999999
 20
-32.25475
 10
10.700750000000001
 20
-32.5604
 10
9.7913
 20
-32.8554
 10
8.8756
 20
-33.13515
 10
7.954350000000001
 20
-33.3957
 10
7.02835
 20
-33.63375
 10
6.0983
 20
-33.84655
 10
5.1649
 20
-34.0319
 10
4.22895
 20
-34.18825
 10
3.2910000000000004
 20
-34.3144
 10
2.35165
 20
-34.40955
 10
1.4113499999999999
 20
-34.4732
 10
0.4705
 20
-34.5051
 10
-0.4705
 20
-34.5051
 10
-1.4113499999999999
 20
-34.4732
 10
-2.35165
 20
-34.40955
 10
-3.2910000000000004
 20
-34.3144
 10
-4.22895
 20
-34.18825
 10
-5.1649
 20
-34.0319
 10
-6.0983
 20
-33.84655
 10
-7.02835
 20
-33.63375
 10
-7.954350000000001
 20
-33.3957
 10
-8.8756
 20
-33.13515
 10
-9.7913
 20
-32.8554
 10
-10.700750000000001
 20
-32.5604
 10
-11.603299999999999
 20
-32.25475
 10
-12.498249999999999
 20
-31.943500000000004
 10
-13.3851
 20
-31.6321
 10
-14.26325
 20
-31.32625
 10
-15.132200000000001
 20
-31.031799999999997
 10
-15.991549999999998
 20
-30.754550000000002
 10
-16.841
 20
-30.5
 10
-17.6805
 20
-30.273149999999998
 10
-18.510299999999997
 20
-30.078349999999997
 10
-19.33115
 20
-29.919249999999998
 10
-20.1442
 20
-29.79865
 10
-20.951249999999998
 20
-29.7185
 10
-21.754550000000002
 20
-29.68
 10
-22.55675
 20
-29.683749999999996
 10
-23.36055
 20
-29.729699999999998
 10
-24.1685
 20
-29.817149999999998
 10
-24.9828
 20
-29.94475
 10
-25.805149999999998
 20
-30.1104
 10
-26.63665
 20
-30.311149999999998
 10
-27.47795
 20
-30.543300000000002
 10
-28.32915
 20
-30.802249999999997
 10
-29.1902
 20
-31.082949999999997
 10
-30.06085
 20
-31.379849999999998
 10
-30.94055
 20
-31.6871
 10
-31.828899999999997
 20
-31.998900000000003
 10
-32.72525
 20
-32.30955
 10
-33.6291
 20
-32.61365
 10
-34.5397
 20
-32.90625
 10
-35.456450000000004
 20
-33.18285
 10
-36.37855
 20
-33.4397
 10
-37.0236
 20
-33.602349999999994
 10
-36.567699999999995
 20
-34.0999
 10
-35.967
 20
-34.7329
 10
-35.35535
 20
-35.35535
 10
-34.7329
 20
-35.967
 10
-34.0999
 20
-36.567699999999995
 10
-33.45655
 20
-37.15725
 10
-32.802949999999996
 20
-37.7355
 10
-32.1394
 20
-38.3022
 10
-31.466
 20
-38.8573
 10
-30.78305
 20
-39.40055
 10
-30.09075
 20
-39.9318
 10
-29.38925
 20
-40.45085
 10
-28.6788
 20
-40.9576
 10
-27.959650000000003
 20
-41.4519
 10
-27.231949999999998
 20
-41.933550000000004
 10
-26.49595
 20
-42.4024
 10
-25.7519
 20
-42.85835
 10
-25.0
 20
-43.30125
 10
-24.2405
 20
-43.730999999999995
 10
-23.4736
 20
-44.1474
 10
-22.6995
 20
-44.55035
 10
-21.91855
 20
-44.9397
 10
-21.1309
 20
-45.3154
 10
-20.336850000000002
 20
-45.67725
 10
-19.53655
 20
-46.02525
 10
-18.73035
 20
-46.3592
 10
-17.918400000000002
 20
-46.678999999999995
 10
-17.101
 20
-46.98465
 10
-16.2784
 20
-47.27595
 10
-15.450849999999999
 20
-47.55285
 10
-14.6186
 20
-47.81525
 10
-13.78185
 20
-48.0631
 10
-12.94095
 20
-48.296299999999995
 10
-12.0961
 20
-48.5148
 10
-11.24755
 20
-48.7185
 10
-10.3956
 20
-48.9074
 10
-9.54045
 20
-49.08135
 10
-8.6824
 20
-49.2404
 10
-7.8217
 20
-49.3844
 10
-6.95865
 20
-49.513400000000004
 10
-6.093450000000001
 20
-49.627300000000005
 10
-5.2264
 20
-49.7261
 10
-4.3578
 20
-49.80975
 10
-3.4878
 20
-49.8782
 10
-2.6168
 20
-49.9315
 10
-1.74495
 20
-49.96955
 10
-0.8725999999999999
 20
-49.992399999999996
 10
-0.0
 20
-50.0
 10
0.8725999999999999
 20
-49.992399999999996
 10
1.74495
 20
-49.96955
 10
2.6168
 20
-49.9315
 10
3.4878
 20
-49.8782
 10
4.3578
 20
-49.80975
 10
5.2264
 20
-49.7261
 10
6.093450000000001
 20
-49.627300000000005
 10
6.95865
 20
-49.513400000000004
 10
7.8217
 20
-49.3844
 10
8.6824
 20
-49.2404
 10
9.54045
 20
-49.08135
 10
10.3956
 20
-48.9074
 10
11.24755
 20
-48.7185
 10
12.0961
 20
-48.5148
 10
12.94095
 20
-48.296299999999995
 10
13.78185
 20
-48.0631
 10
14.6186
 20
-47.81525
 10
15.450849999999999
 20
-47.55285
 10
16.2784
 20
-47.27595
 10
17.101
 20
-46.98465
 10
17.918400000000002
 20
-46.678999999999995
 10
18.73035
 20
-46.3592
 10
19.53655
 20
-46.02525
 10
20.336850000000002
 20
-45.67725
 10
21.1309
 20
-45.3154
 10
21.91855
 20
-44.9397
 10
22.6995
 20
-44.55035
 10
23.4736
 20
-44.1474
 10
24.2405
 20
-43.730999999999995
 10
25.0
 20
-43.30125
 10
25.7519
 20
-42.85835
 10
26.49595
 20
-42.4024
 10
27.231949999999998
 20
-41.933550000000004
 10
27.959650000000003
 20
-41.4519
 10
28.6788
 20
-40.9576
 10
29.38925
 20
-40.45085
 10
30.09075
 20
-39.9318
 10
30.78305
 20
-39.40055
 10
31.466
 20
-38.8573
 10
32.1394
 20
-38.3022
 10
32.802949999999996
 20
-37.7355
 10
33.45655
 20
-37.15725
 10
34.0999
 20
-36.567699999999995
 10
34.7329
 20
-35.967
 10
35.35535
 20
-35.35535
 10
35.967
 20
-34.7329
  0
ENDSEC
  0
SECTION
  2
OBJECTS
  0
DICTIONARY
  5
A
330
0
100
AcDbDictionary
281
1
  3
ACAD_COLOR
350
B
  3
ACAD_GROUP
350
C
  3
ACAD_LAYOUT
350
D
  3
ACAD_MATERIAL
350
E
  3
ACAD_MLEADERSTYLE
350
F
  3
ACAD_MLINESTYLE
350
10
  3
ACAD_PLOTSETTINGS
350
11
  3
ACAD_PLOTSTYLENAME
350
12
  3
ACAD_SCALELIST
350
14
  3
ACAD_TABLESTYLE
350
15
  3
ACAD_VISUALSTYLE
350
16
  3
EZDXF_META
350
2D
  0
DICTIONARY
  5
B
330
A
100
AcDbDictionary
281
1
  0
DICTIONARY
  5
C
330
A
100
AcDbDictionary
281
1
  0
DICTIONARY
  5
D
330
A
100
AcDbDictionary
281
1
  3
Model
350
1A
  3
Layout1
350
1E
  0
DICTIONARY
  5
E
330
A
100
AcDbDictionary
281
1
  3
ByBlock
350
1F
  3
ByLayer
350
20
  3
Global
350
21
  0
DICTIONARY
  5
F
330
A
100
AcDbDictionary
281
1
  3
Standard
350
2C
  0
DICTIONARY
  5
10
330
A
100
AcDbDictionary
281
1
  3
Standard
350
22
  0
DICTIONARY
  5
11
330
A
100
AcDbDictionary
281
1
  0
ACDBDICTIONARYWDFLT
  5
12
330
A
100
AcDbDictionary
281
1
  3
Normal
350
13
100
AcDbDictionaryWithDefault
340
13
  0
ACDBPLACEHOLDER
  5
13
330
12
  0
DICTIONARY
  5
14
330
A
100
AcDbDictionary
281
1
  0
DICTIONARY
  5
15
330
A
100
AcDbDictionary
281
1
  0
DICTIONARY
  5
16
330
A
100
AcDbDictionary
281
1
  0
LAYOUT
  5
1A
330
D
100
AcDbPlotSettings
  1

  4
A3
  6

 40
7.5
 41
20.0
 42
7.5
 43
20.0
 44
420.0
 45
297.0
 46
0.0
 47
0.0
 48
0.0
 49
0.0
140
0.0
141
0.0
142
1.0
143
1.0
 70
1024
 72
1
 73
0
 74
5
  7

 75
16
 76
0
 77
2
 78
300
147
1.0
148
0.0
149
0.0
100
AcDbLayout
  1
Model
 70
1
 71
0
 10
0.0
 20
0.0
 11
420.0
 21
297.0
 12
0.0
 22
0.0
 32
0.0
 14
1e+20
 24
1e+20
 34
1e+20
 15
-1e+20
 25
-1e+20
 35
-1e+20
146
0.0
 13
0.0
 23
0.0
 33
0.0
 16
1.0
 26
0.0
 36
0.0
 17
0.0
 27
1.0
 37
0.0
 76
1
330
17
  0
LAYOUT
  5
1E
330
D
100
AcDbPlotSettings
  1

  4
A3
  6

 40
7.5
 41
20.0
 42
7.5
 43
20.0
 44
420.0
 45
297.0
 46
0.0
 47
0.0
 48
0.0
 49
0.0
140
0.0
141
0.0
142
1.0
143
1.0
 70
0
 72
1
 73
0
 74
5
  7

 75
16
 76
0
 77
2
 78
300
147
1.0
148
0.0
149
0.0
100
AcDbLayout
  1
Layout1
 70
1
 71
1
 10
0.0
 20
0.0
 11
420.0
 21
297.0
 12
0.0
 22
0.0
 32
0.0
 14
1e+20
 24
1e+20
 34
1e+20
 15
-1e+20
 25
-1e+20
 35
-1e+20
146
0.0
 13
0.0
 23
0.0
 33
0.0
 16
1.0
 26
0.0
 36
0.0
 17
0.0
 27
1.0
 37
0.0
 76
1
330
1B
  0
MATERIAL
  5
1F
102
{ACAD_REACTORS
330
E
102
}
330
E
100
AcDbMaterial
  1
ByBlock
  2

 70
0
 40
1.0
 71
1
 41
1.0
 91
-1023410177
 42
1.0
 72
1
  3

 73
1
 74
1
 75
1
 44
0.5
 73
0
 45
1.0
 46
1.0
 77
1
  4

 78
1
 79
1
170
1
 48
1.0
171
1
  6

172
1
173
1
174
1
140
1.0
141
1.0
175
1
  7

176
1
177
1
178
1
143
1.0
179
1
  8

270
1
271
1
272
1
145
1.0
146
1.0
273
1
  9

274
1
275
1
276
1
 42
1.0
 72
1
  3

 73
1
 74
1
 75
1
 94
63
  0
MATERIAL
  5
20
102
{ACAD_REACTORS
330
E
102
}
330
E
100
AcDbMaterial
  1
ByLayer
  2

 70
0
 40
1.0
 71
1
 41
1.0
 91
-1023410177
 42
1.0
 72
1
  3

 73
1
 74
1
 75
1
 44
0.5
 73
0
 45
1.0
 46
1.0
 77
1
  4

 78
1
 79
1
170
1
 48
1.0
171
1
  6

172
1
173
1
174
1
140
1.0
141
1.0
175
1
  7

176
1
177
1
178
1
143
1.0
179
1
  8

270
1
271
1
272
1
145
1.0
146
1.0
273
1
  9

274
1
275
1
276
1
 42
1.0
 72
1
  3

 73
1
 74
1
 75
1
 94
63
  0
MATERIAL
  5
21
102
{ACAD_REACTORS
330
E
102
}
330
E
100
AcDbMaterial
  1
Global
  2

 70
0
 40
1.0
 71
1
 41
1.0
 91
-1023410177
 42
1.0
 72
1
  3

 73
1
 74
1
 75
1
 44
0.5
 73
0
 45
1.0
 46
1.0
 77
1
  4

 78
1
 79
1
170
1
 48
1.0
171
1
  6

172
1
173
1
174
1
140
1.0
141
1.0
175
1
  7

176
1
177
1
178
1
143
1.0
179
1
  8

270
1
271
1
272
1
145
1.0
146
1.0
273
1
  9

274
1
275
1
276
1
 42
1.0
 72
1
  3

 73
1
 74
1
 75
1
 94
63
  0
MLINESTYLE
  5
22
102
{ACAD_REACTORS
330
10
102
}
330
10
100
AcDbMlineStyle
  2
Standard
 70
0
  3

 62
256
 51
90.0
 52
90.0
 71
2
 49
0.5
 62
256
  6
BYLAYER
 49
-0.5
 62
256
  6
BYLAYER
  0
MLEADERSTYLE
  5
2C
102
{ACAD_REACTORS
330
F
102
}
330
F
100
AcDbMLeaderStyle
179
2
170
2
171
1
172
0
 90
2
 40
0.0
 41
0.0
173
1
 91
-1056964608
 92
-2
290
1
 42
2.0
291
1
 43
8.0
  3
Standard
 44
4.0
300

342
29
174
1
175
1
176
0
178
1
 93
-1056964608
 45
4.0
292
0
297
0
 46
4.0
 94
-1056964608
 47
1.0
 49
1.0
140
1.0
294
1
141
0.0
177
0
142
1.0
295
0
296
0
143
3.75
271
0
272
9
273
9
  0
DICTIONARY
  5
2D
330
A
100
AcDbDictionary
280
1
281
1
  3
CREATED_BY_EZDXF
350
2E
  3
WRITTEN_BY_EZDXF
350
3E
  0
DICTIONARYVAR
  5
2E
330
2D
100
DictionaryVariables
280
0
  1
1.4.4 @ 2026-10-07T13:42:35.387362+00:00
  0
DICTIONARYVAR
  5
3E
330
2D
100
DictionaryVariables
280
0
  1
1.4.4 @ 2026-10-07T13:42:35.396051+00:00
  0
ENDSEC
  0
EOF
